<svg xmlns="http://www.w3.org/2000/svg" xmlns:xlink="http://www.w3.org/1999/xlink" viewBox="0 0 269.6 266.1">
  <defs>
    <style>
      .cls-1, .cls-3 {
        fill: none;
      }

      .cls-2 {
        isolation: isolate;
      }

      .cls-3 {
        stroke: #7438f9;
        stroke-linecap: round;
        stroke-linejoin: round;
        stroke-width: 2.1px;
      }

      .cls-4 {
        fill: #9353ff;
      }

      .cls-5 {
        fill: #b9a7f9;
      }

      .cls-6 {
        fill: #e3d9ff;
      }

      .cls-7 {
        clip-path: url(#clip-path);
      }

      .cls-8 {
        fill: #cddeae;
      }

      .cls-9 {
        fill: #abc1e2;
      }

      .cls-10 {
        fill: #c0b09c;
      }

      .cls-11, .cls-12 {
        fill: #ece8e2;
      }

      .cls-11, .cls-12, .cls-16 {
        mix-blend-mode: multiply;
      }

      .cls-11, .cls-16 {
        opacity: 0.6;
      }

      .cls-13 {
        fill: #fff;
      }

      .cls-14 {
        fill: #f2d27d;
      }

      .cls-15 {
        fill: #6c9640;
      }

      .cls-16 {
        fill: #cfd1d2;
      }

      .cls-17 {
        fill: url(#Gradiente_sem_nome_28);
      }
    </style>
    <clipPath id="clip-path">
      <polygon class="cls-1" points="259 170.8 10.7 170.8 65.9 89.1 203.8 89.1 259 170.8"/>
    </clipPath>
    <linearGradient id="Gradiente_sem_nome_28" data-name="Gradiente sem nome 28" x1="131.93" y1="183.89" x2="131.93" y2="29.52" gradientUnits="userSpaceOnUse">
      <stop offset="0" stop-color="#90f900"/>
      <stop offset="0.46" stop-color="#b5fc01"/>
      <stop offset="0.87" stop-color="#daff01"/>
    </linearGradient>
  </defs>
  <g class="cls-2">
    <g id="Camada_2" data-name="Camada 2">
      <g id="OBJECTS">
        <g>
          <g>
            <g>
              <rect class="cls-3" x="41.5" y="39.7" width="186.7" height="186.7" transform="translate(-54.6 134.3) rotate(-45)"/>
              <path class="cls-4" d="M249.1,133.1A114.3,114.3,0,1,1,134.8,18.8,114.2,114.2,0,0,1,249.1,133.1Z"/>
            </g>
            <g>
              <g>
                <rect class="cls-5" y="176.1" width="269.6" height="14.01"/>
                <polygon class="cls-6" points="269.6 176.1 0 176.1 62.4 85.1 207.3 85.1 269.6 176.1"/>
              </g>
              <g class="cls-7">
                <g>
                  <g>
                    <g>
                      <g>
                        <g>
                          <polygon class="cls-8" points="127.4 91.1 168.8 88.5 164.7 88 111.3 88 127.4 91.1"/>
                          <polygon class="cls-8" points="111.1 103.7 136.2 101 204 125.5 192.4 129.7 152.8 111.2 111.1 103.7"/>
                        </g>
                        <g>
                          <path class="cls-9" d="M54.7,92.4l7.5-3.3s28.1-.8,33.2-.4a75.3,75.3,0,0,0,9.7,0c2.9,0,6.9.9,4.4,1.6s-5.5.9-9.9.6-6.3-.6-10.1,0C79.5,92.4,56.7,92.3,54.7,92.4Z"/>
                          <path class="cls-9" d="M215.8,115.1c-5-1.2-10-1.3-13.8-3.2a40.2,40.2,0,0,0-7.2-2.7c-2.3-.6-4.5-.1-8.8-.8s-8.3-.2-4.3,2.2,12,2.6,14.3,3.7,7.1,6.7,20.4,3.6C216.4,117.9,221,116.9,215.8,115.1Z"/>
                        </g>
                        <g>
                          <polygon class="cls-10" points="215.1 149.1 192 163.7 171.3 155.8 199 141.1 215.1 149.1"/>
                          <polygon class="cls-11" points="269.6 199.2 219.2 200.6 221.6 175.9 198.4 166.8 219.7 151.8 269.6 176.1 269.6 199.2"/>
                          <g>
                            <polygon class="cls-10" points="107.8 126.3 101 124.9 104.8 122.3 111.3 123.6 107.8 126.3"/>
                            <polygon class="cls-10" points="94.7 136.5 87.2 134.7 92.1 131.2 99.4 132.9 94.7 136.5"/>
                          </g>
                          <g>
                            <polygon class="cls-10" points="123 129.1 115.5 127.6 118.7 124.8 125.9 126.1 123 129.1"/>
                            <polygon class="cls-10" points="117.9 134.4 110 132.7 113.7 129.4 121.3 130.9 117.9 134.4"/>
                            <polygon class="cls-10" points="88.7 127.6 82.2 126.2 86.7 123.5 93.1 124.7 88.7 127.6"/>
                            <polygon class="cls-10" points="114.4 110.5 108.3 109.7 111.9 107.5 117.8 108.6 114.4 110.5"/>
                            <polygon class="cls-10" points="216.4 140.9 207.5 136.8 215.6 132.1 223.7 135.7 216.4 140.9"/>
                            <polygon class="cls-10" points="60.5 123.1 56.4 121.2 62 119.1 66.1 120.9 60.5 123.1"/>
                            <polygon class="cls-10" points="53.3 119.7 49.4 117.8 55 115.9 58.9 117.6 53.3 119.7"/>
                            <polygon class="cls-10" points="79 110.9 75 109.9 86.7 107 89.9 107.6 79 110.9"/>
                            <polygon class="cls-10" points="112 140.4 103.6 138.5 107.9 134.6 116 136.3 112 140.4"/>
                          </g>
                          <polygon class="cls-10" points="169 91.8 204.6 88.7 207.6 90.3 208.6 91.3 175.2 93 169 91.8"/>
                          <polygon class="cls-10" points="165.8 90.6 157.3 91.2 155.6 90.9 164.1 90.3 165.8 90.6"/>
                          <polygon class="cls-10" points="180.1 89.4 171.7 90 170 89.8 178.4 89.2 180.1 89.4"/>
                          <polygon class="cls-10" points="195.2 88 187.1 88.6 185.4 88.3 193.5 87.7 195.2 88"/>
                          <polygon class="cls-10" points="150.6 91.7 141.3 92.4 139.7 92.2 149 91.5 150.6 91.7"/>
                          <polygon class="cls-10" points="104.9 92.6 113.2 92.8 112 93.2 103.5 93 104.9 92.6"/>
                          <polygon class="cls-10" points="91.6 92.2 99.7 92.4 98.3 92.8 90 92.6 91.6 92.2"/>
                          <polygon class="cls-10" points="61.9 102.8 82.9 101.3 83.7 103 60.5 105.4 61.9 102.8"/>
                          <polygon class="cls-10" points="111.4 99.2 125.9 97.7 127.5 98.6 112.3 100.4 111.4 99.2"/>
                          <polygon class="cls-10" points="168.9 96.5 173.6 96.4 177.3 97.7 172.5 97.7 168.9 96.5"/>
                          <polygon class="cls-10" points="149.7 94.2 153 93.9 156 95 151.8 95.1 149.7 94.2"/>
                          <polygon class="cls-10" points="181.9 96.3 186.1 96.3 190.3 97.5 186.2 97.6 181.9 96.3"/>
                        </g>
                        <g>
                          <polygon class="cls-12" points="110 95 112.8 93.8 91.5 93.4 61.5 93.9 59.6 96.1 80.6 97 97.1 95 110 95"/>
                          <polygon class="cls-12" points="94.1 117.5 106.4 111.5 130.6 114.5 134.9 110.5 150.1 112.8 161.6 118.4 140.1 125.7 94.1 117.5"/>
                          <polygon class="cls-11" points="153.9 92.2 206.2 87.6 209.3 92.1 162.2 94.5 153.9 92.2"/>
                          <polygon class="cls-11" points="145.6 99.9 149.5 99.3 156.2 99.8 167.3 106.6 145.6 99.9"/>
                        </g>
                        <g>
                          <path class="cls-13" d="M133.8,91.8l29.7-2,5.8.8-6.6.6h0l-28.3,2.3c-.4,0-.7.2-.6.3l.9.2h.2l8.4-.7,5.5,2.4-17.1.2c-.5,0-.9.2-.9.4s.4.3.9.3h0l42.2-.7,14.8,4.7,1.1.2h.5c.3-.1.1-.4-.5-.5l-13.9-4.4h10.6l18.5,5.5a3,3,0,0,0,1.3.2h.4c.3-.1,0-.4-.6-.6l-17.7-5.2,16-.2q.8,0,.3-.3a3.6,3.6,0,0,0-1.5-.2l-37.8.5-2.3-.7,46.8-2.3c.4,0,.5-.2.1-.3l-1.3-.2-33.6,1.6-10.3-2,42-3.7c.3,0,.3-.1,0-.2a2.6,2.6,0,0,0-1.2-.1l-34.5,3-5.8-.8,27.3-2.2c.4,0,.4-.1.1-.2l-1-.2L163,89.4h0l-29.3,2c-.4,0-.7.1-.7.2S133.3,91.8,133.8,91.8Zm17.1,3.8L145,93.2l8.7-.8,9.6,3Zm22.1-2-11.5.6-6.2-1.9,7.9-.7Z"/>
                          <path class="cls-13" d="M23.8,130.2,58,127.8a4.5,4.5,0,0,0,1.9-.5l48.9-21.6,24.7,4.7-3.5,3.2-24.1-2.9a2.9,2.9,0,0,0-1.6.3L58.9,135.4a3.7,3.7,0,0,0-1.6,1.3c-.2.5-.1.8.4,1L108.9,152l.6.4,1,.2h.5l36,10.1h.7a2.4,2.4,0,0,0,1.2-.3l14.3-7.7.4-.2,12.2-6.5.5-.3,20.5-11,67.5,33c2.1,1-.1.7.9.7s0-2.4-.4-3.2.2-.7-3.5-2.4l-61.9-29.5,38.7-20.7c.3-.2-.3-.6-1.4-1a5,5,0,0,0-2.5-.3l-6.9,3.4-28.4-8.3,16,1.5h.9c.1-.1-.1-.3-.4-.5l-14.2-8.1a3.4,3.4,0,0,0-1.8-.4h0c-.6,0-.7.1-.4.3l12.6,7.5-6.3-.6-9-5a3.7,3.7,0,0,0-1.5-.3L179,101.6h0l-17.8-1.3-3.8-2.1L156,98c-.5.1-.6.3-.3.5l11.9,6.8a2.4,2.4,0,0,0,1,.3L194,108l31.8,9.5-31.1,15.6L151,112.3l-.6-.2-50-9.1a2.9,2.9,0,0,0-1.6.2c-.5.3-.4.5.1.6l7.9,1.5-19.6,8.4L81,112.4l16.5-5.1a1.2,1.2,0,0,0,.8-.5c0-.2-.1-.3-.4-.4l-8.3-2.2a3.1,3.1,0,0,0-1.8.3c-.5.2-.6.5-.2.6l7.1,1.9L79,111.8h-.3l-10-2a4,4,0,0,0-1.1,0l-23.2,4.6,6.7-5.2c.4-.3.1-.5-.7-.4a4.4,4.4,0,0,0-2.2.7L21.5,129.1h-.1l-.5.4m181.4-21.8-14.4-1.3-6.6-3.9,13.5,1Zm-24.1-2.2-6.2-3.6,6.8.4,6.2,3.8Zm-15.5-4.3,6.8.5c1.1.8,3.9,2.5,5.7,3.6l-6.2-.6Zm-96.1,10L84.3,115l-8.7,3.7-16.9-5.9Zm-7,14.4-32.7,2.2L42.4,116l11.9-2.3,17.8,6.5Zm45.8-13.5,24.8,3.1a1.8,1.8,0,0,0,1.7-.4l4.1-3.9,13.4,2.5,9.7,4.7-19.3,6.5L105.7,119h-.4L96,117.4ZM94.8,143.4l23.3-20.3,11.5,2-18.9,22.5ZM78.1,139l26.8-18.1,10,1.7-24,19.8Zm15.1-20.1,8.8,1.5L74.6,138.1l-10.8-2.8Zm53.6,38.2L115,148.8l18-23.1,6.3,1.1,4.1,2.5-6.9,12.3a1.7,1.7,0,0,0,1,2.3l18.7,8.5ZM161,150l-19.6-8.4,5.1-10.4,23.4,14.3Zm12.5-6.3L143.1,126l18.7-6.5,30.3,14.9Z"/>
                          <path class="cls-13" d="M78.6,97.3l20.9,1.3h.2l1.2-.3c.3-.2.1-.4-.4-.4L83,96.8l13.9-1.5h35.5c.5,0,.9-.1.9-.3s-.3-.3-.8-.3H111.6l7.4-3.1c.2-.1.2-.3-.2-.3a2.1,2.1,0,0,0-1.1.1l-5.2,2.1-12-.2,5.4-1.5c.3-.1.4-.3.1-.3h-1.1l-6.4,1.8-6.6-.2h-.1l-8.6.2,10.5-1.9c.4-.1.7-.2.5-.3h-1L80.3,93.3l-22.9.5a2.9,2.9,0,0,0-1.4.3c-.3.1-.2.2.3.2l34.8-.7,20.2.5-1.6.6H97.1L79.7,96.6,52,95.4a2.9,2.9,0,0,0-1.6.2c-.5.2-.5.3,0,.4l23.5,1-15.1,3.6c-.7.2-1.1.5-1,.6h.5l1.1-.2,16.5-4Z"/>
                        </g>
                        <path class="cls-14" d="M231.3,128.1,141.8,99.5l7.9-.8,71.9,4.8c1.6.1,1.2-.6.3-1.1a20.9,20.9,0,0,0-5.5-1.6l-67.1-3.6a2.7,2.7,0,0,0-.9,0l-10.5,1-6-2,4.5-1.7c.3-.1.5-.3.4-.5a1.9,1.9,0,0,0-.9-.4l-24.8-5a3.2,3.2,0,0,0-1.7-.1c-.6.2-.2.3.4.4L132,94.3l-3.9,1.4L55.6,99.9a18.7,18.7,0,0,0-5.2,1.5c-.7.5-1.6,1.3-.4,1.3h.5L128.3,97l4.8,1.7L38.2,109a16.8,16.8,0,0,0-5.6,1.7c-.9.7-2.4,1.9-1.1,1.9h1.1L136.8,100l97.9,34.8"/>
                      </g>
                      <path class="cls-13" d="M207.6,213.8c-1,0-40.6-16.8-42.3-17.5L9.8,136.3c-.8-.4-.2-1.2,1.4-1.8a7.1,7.1,0,0,1,4.3-.6l194.9,69.5c5.3,2,.7,3.7,3.6,8S210.2,213.8,207.6,213.8Z"/>
                    </g>
                    <polygon class="cls-13" points="41.6 145.7 38.1 144.7 56.6 126.4 59.8 127.1 41.6 145.7"/>
                  </g>
                  <polygon class="cls-11" points="15.9 144.8 162.6 203.3 2.8 183.1 15.9 144.8"/>
                </g>
              </g>
            </g>
          </g>
          <g>
            <path class="cls-15" d="M137.2,145.6c21.6-20.8,32.4-37.2,37.7-49.1a42.1,42.1,0,0,0,5.3-20.6,42.8,42.8,0,0,0-85.6-1.5h-.1s-8,26.5,37.3,71.2Zm-1.3-53a16.8,16.8,0,1,1,16.8-16.7A16.7,16.7,0,0,1,135.9,92.6Z"/>
            <path class="cls-16" d="M204.3,116.1c-23.1,0-53.7,4.8-69.3,10.8h-.1s-21.4,6.5-3.1,18.7c35-5.4,56.3-9.8,69.3-12.9a118.1,118.1,0,0,0,18.6-5.4C234.9,121.1,228,116.1,204.3,116.1Zm-39.1,16c-10,0-12.9-2.2-6.5-4.8s19.7-4.7,29.7-4.7,12.9,2.1,6.5,4.7S175.2,132.1,165.2,132.1Z"/>
            <path class="cls-17" d="M132,33A42.8,42.8,0,0,0,89.3,74.4h-.1s-5.5,24.8,42.6,71.2c21.6-20.8,32.4-37.2,37.8-49.1A42.9,42.9,0,0,0,132,33Zm0,61a18.1,18.1,0,1,1,18.1-18.1A18,18,0,0,1,132,94Z"/>
          </g>
        </g>
      </g>
    </g>
  </g>
</svg>
