<svg xmlns="http://www.w3.org/2000/svg" xmlns:xlink="http://www.w3.org/1999/xlink" viewBox="0 0 2669.1 2728.6">
  <defs>
    <style>
      .cls-1 {
        fill: #e3d9ff;
      }

      .cls-2 {
        fill: #9353ff;
      }

      .cls-3 {
        fill: #545454;
      }

      .cls-4 {
        fill: #3a3a3a;
      }

      .cls-5, .cls-6, .cls-8 {
        fill: #fff;
      }

      .cls-5 {
        opacity: 0.78;
      }

      .cls-7 {
        fill: url(#Gradiente_sem_nome_143);
      }

      .cls-8 {
        opacity: 0.72;
      }

      .cls-9 {
        fill: #90f900;
      }

      .cls-10 {
        fill: url(#Gradiente_sem_nome_196);
      }

      .cls-11 {
        fill: url(#Gradiente_sem_nome_370);
      }

      .cls-12 {
        fill: url(#Gradiente_sem_nome_363);
      }

      .cls-13 {
        fill: url(#linear-gradient);
      }

      .cls-14 {
        fill: url(#Gradiente_sem_nome_374);
      }

      .cls-15 {
        fill: url(#Gradiente_sem_nome_363-2);
      }

      .cls-16 {
        fill: url(#linear-gradient-2);
      }

      .cls-17 {
        fill: url(#Gradiente_sem_nome_343);
      }

      .cls-18 {
        fill: url(#Gradiente_sem_nome_217);
      }

      .cls-19 {
        fill: url(#linear-gradient-3);
      }

      .cls-20 {
        fill: url(#linear-gradient-4);
      }

      .cls-21 {
        fill: url(#Gradiente_sem_nome_348);
      }

      .cls-22 {
        fill: url(#linear-gradient-5);
      }

      .cls-23 {
        fill: url(#Gradiente_sem_nome_378);
      }

      .cls-24 {
        fill: url(#Gradiente_sem_nome_395);
      }

      .cls-25 {
        fill: url(#Gradiente_sem_nome_395-2);
      }

      .cls-26 {
        fill: url(#Gradiente_sem_nome_395-3);
      }

      .cls-27 {
        fill: url(#Gradiente_sem_nome_395-4);
      }

      .cls-28 {
        fill: url(#Gradiente_sem_nome_395-5);
      }

      .cls-29 {
        fill: url(#Gradiente_sem_nome_395-6);
      }

      .cls-30 {
        fill: url(#Gradiente_sem_nome_395-7);
      }

      .cls-31 {
        fill: url(#Gradiente_sem_nome_378-2);
      }

      .cls-32 {
        fill: url(#Gradiente_sem_nome_395-8);
      }

      .cls-33 {
        fill: url(#Gradiente_sem_nome_395-9);
      }

      .cls-34 {
        fill: url(#Gradiente_sem_nome_395-10);
      }

      .cls-35 {
        fill: url(#Gradiente_sem_nome_395-11);
      }

      .cls-36 {
        fill: url(#Gradiente_sem_nome_395-12);
      }

      .cls-37 {
        fill: url(#Gradiente_sem_nome_395-13);
      }

      .cls-38 {
        fill: url(#Gradiente_sem_nome_395-14);
      }

      .cls-39 {
        fill: url(#linear-gradient-6);
      }

      .cls-40 {
        fill: #6933ff;
      }

      .cls-41 {
        fill: url(#linear-gradient-7);
      }

      .cls-42 {
        fill: url(#linear-gradient-8);
      }
    </style>
    <linearGradient id="Gradiente_sem_nome_143" data-name="Gradiente sem nome 143" x1="4720" y1="-285.51" x2="2857.21" y2="2158.15" gradientTransform="matrix(-0.03, -1, -1, 0.03, 3904.67, 4542.75)" gradientUnits="userSpaceOnUse">
      <stop offset="0" stop-color="#c9ff6c"/>
      <stop offset="1" stop-color="#90f900"/>
    </linearGradient>
    <linearGradient id="Gradiente_sem_nome_196" data-name="Gradiente sem nome 196" x1="2053.26" y1="480.76" x2="1552.56" y2="1108.3" gradientUnits="userSpaceOnUse">
      <stop offset="0.26" stop-color="#c9ff6c"/>
      <stop offset="0.57" stop-color="#b4ff31"/>
      <stop offset="1" stop-color="#90f900"/>
    </linearGradient>
    <linearGradient id="Gradiente_sem_nome_370" data-name="Gradiente sem nome 370" x1="-5337.05" y1="2636.64" x2="-5065.31" y2="2636.64" gradientTransform="matrix(-1, 0, 0, 1, -4407.31, 0)" gradientUnits="userSpaceOnUse">
      <stop offset="0" stop-color="#333"/>
      <stop offset="1" stop-color="#282828"/>
    </linearGradient>
    <linearGradient id="Gradiente_sem_nome_363" data-name="Gradiente sem nome 363" x1="-5337.07" y1="2583.39" x2="-5072.98" y2="2583.39" gradientTransform="matrix(-1, 0, 0, 1, -4407.31, 0)" gradientUnits="userSpaceOnUse">
      <stop offset="0" stop-color="#90f900"/>
      <stop offset="1" stop-color="#baff4d"/>
    </linearGradient>
    <linearGradient id="linear-gradient" x1="-5311.96" y1="2509.03" x2="-5235.42" y2="2509.03" gradientTransform="matrix(-1, 0, 0, 1, -4407.31, 0)" gradientUnits="userSpaceOnUse">
      <stop offset="0" stop-color="#febbba"/>
      <stop offset="1" stop-color="#ff928e"/>
    </linearGradient>
    <linearGradient id="Gradiente_sem_nome_374" data-name="Gradiente sem nome 374" x1="-5822.07" y1="2704.03" x2="-5717.94" y2="2704.03" gradientTransform="matrix(-1, 0, 0, 1, -4407.31, 0)" gradientUnits="userSpaceOnUse">
      <stop offset="0" stop-color="#3a3a3a"/>
      <stop offset="1" stop-color="#282828"/>
    </linearGradient>
    <linearGradient id="Gradiente_sem_nome_363-2" x1="-5821.31" y1="2600.4" x2="-5668.46" y2="2600.4" xlink:href="#Gradiente_sem_nome_363"/>
    <linearGradient id="linear-gradient-2" x1="-5741.86" y1="2469.12" x2="-5650.39" y2="2469.12" xlink:href="#linear-gradient"/>
    <linearGradient id="Gradiente_sem_nome_343" data-name="Gradiente sem nome 343" x1="1812.63" y1="357.33" x2="1071.59" y2="1779.32" gradientUnits="userSpaceOnUse">
      <stop offset="0" stop-color="#1c1c1c"/>
      <stop offset="1" stop-color="#0c0c0c"/>
    </linearGradient>
    <linearGradient id="Gradiente_sem_nome_217" data-name="Gradiente sem nome 217" x1="241.57" y1="1078.12" x2="1079.89" y2="1078.12" gradientUnits="userSpaceOnUse">
      <stop offset="0" stop-color="#9666ff"/>
      <stop offset="1" stop-color="#6933ff"/>
    </linearGradient>
    <linearGradient id="linear-gradient-3" x1="-5291.2" y1="846.88" x2="-5251.56" y2="638.79" xlink:href="#linear-gradient"/>
    <linearGradient id="linear-gradient-4" x1="-5183.95" y1="465.1" x2="-5410.09" y2="638.14" xlink:href="#linear-gradient"/>
    <linearGradient id="Gradiente_sem_nome_348" data-name="Gradiente sem nome 348" x1="-5366.64" y1="346.34" x2="-5156.02" y2="617.51" gradientTransform="matrix(-1, 0, 0, 1, -4407.31, 0)" gradientUnits="userSpaceOnUse">
      <stop offset="0" stop-color="#161616"/>
      <stop offset="1" stop-color="#0c0c0c"/>
    </linearGradient>
    <linearGradient id="linear-gradient-5" x1="-5212" y1="428.44" x2="-5438.15" y2="601.48" xlink:href="#linear-gradient"/>
    <linearGradient id="Gradiente_sem_nome_378" data-name="Gradiente sem nome 378" x1="-1098.56" y1="460.6" x2="339.12" y2="1463.63" gradientTransform="matrix(-1, 0, 0, 1, 628.12, 0)" gradientUnits="userSpaceOnUse">
      <stop offset="0" stop-color="#262626"/>
      <stop offset="1" stop-color="#191919"/>
    </linearGradient>
    <linearGradient id="Gradiente_sem_nome_395" data-name="Gradiente sem nome 395" x1="-241.43" y1="1068.8" x2="-420.14" y2="1328.48" gradientTransform="matrix(-1, 0, 0, 1, 628.12, 0)" gradientUnits="userSpaceOnUse">
      <stop offset="0" stop-color="#212121"/>
      <stop offset="1" stop-color="#2b2b2b"/>
    </linearGradient>
    <linearGradient id="Gradiente_sem_nome_395-2" x1="-235" y1="1073.22" x2="-413.71" y2="1332.91" xlink:href="#Gradiente_sem_nome_395"/>
    <linearGradient id="Gradiente_sem_nome_395-3" x1="-227.25" y1="1078.55" x2="-405.96" y2="1338.24" xlink:href="#Gradiente_sem_nome_395"/>
    <linearGradient id="Gradiente_sem_nome_395-4" x1="-213.84" y1="1087.78" x2="-392.55" y2="1347.47" xlink:href="#Gradiente_sem_nome_395"/>
    <linearGradient id="Gradiente_sem_nome_395-5" x1="-205" y1="1093.87" x2="-383.71" y2="1353.56" xlink:href="#Gradiente_sem_nome_395"/>
    <linearGradient id="Gradiente_sem_nome_395-6" x1="-199.51" y1="1097.65" x2="-378.22" y2="1357.33" xlink:href="#Gradiente_sem_nome_395"/>
    <linearGradient id="Gradiente_sem_nome_395-7" x1="-250.62" y1="1062.47" x2="-429.33" y2="1322.16" xlink:href="#Gradiente_sem_nome_395"/>
    <linearGradient id="Gradiente_sem_nome_378-2" x1="-794.63" y1="194.3" x2="281.61" y2="945.17" xlink:href="#Gradiente_sem_nome_378"/>
    <linearGradient id="Gradiente_sem_nome_395-8" x1="704.62" y1="754.73" x2="712.04" y2="754.73" gradientTransform="matrix(1, 0, 0, 1, 0, 0)" xlink:href="#Gradiente_sem_nome_395"/>
    <linearGradient id="Gradiente_sem_nome_395-9" x1="697.97" y1="754.24" x2="703.84" y2="754.24" gradientTransform="matrix(1, 0, 0, 1, 0, 0)" xlink:href="#Gradiente_sem_nome_395"/>
    <linearGradient id="Gradiente_sem_nome_395-10" x1="689.04" y1="754.24" x2="695.66" y2="754.24" gradientTransform="matrix(1, 0, 0, 1, 0, 0)" xlink:href="#Gradiente_sem_nome_395"/>
    <linearGradient id="Gradiente_sem_nome_395-11" x1="673.01" y1="754.73" x2="682.78" y2="754.73" gradientTransform="matrix(1, 0, 0, 1, 0, 0)" xlink:href="#Gradiente_sem_nome_395"/>
    <linearGradient id="Gradiente_sem_nome_395-12" x1="666.05" y1="754.73" x2="670.23" y2="754.73" gradientTransform="matrix(1, 0, 0, 1, 0, 0)" xlink:href="#Gradiente_sem_nome_395"/>
    <linearGradient id="Gradiente_sem_nome_395-13" x1="658.73" y1="754.67" x2="665.35" y2="754.67" gradientTransform="matrix(1, 0, 0, 1, 0, 0)" xlink:href="#Gradiente_sem_nome_395"/>
    <linearGradient id="Gradiente_sem_nome_395-14" x1="713.77" y1="756.01" x2="724.93" y2="756.01" gradientTransform="matrix(1, 0, 0, 1, 0, 0)" xlink:href="#Gradiente_sem_nome_395"/>
    <linearGradient id="linear-gradient-6" x1="2454.3" y1="821.04" x2="2674.01" y2="1855.73" gradientTransform="matrix(-0.99, -0.11, -0.11, 0.99, 2856.42, 61.23)" xlink:href="#linear-gradient"/>
    <linearGradient id="linear-gradient-7" x1="662.83" y1="-13857.11" x2="1009.98" y2="-14745.01" xlink:href="#linear-gradient"/>
    <linearGradient id="linear-gradient-8" x1="847.17" y1="1229.97" x2="1194.33" y2="342.06" gradientTransform="matrix(1, 0, 0, 1, 0, 0)" xlink:href="#linear-gradient"/>
  </defs>
  <g id="Camada_2" data-name="Camada 2">
    <g id="Illustration">
      <g>
        <path class="cls-1" d="M2348,2280.9c-69.5,71.6-131.7,113.7-179.3,145.4-464.1,310-994.7,220.6-1158.8,190.1-264.7-49.3-488.1-84-680.1-257.4C-106.3,1964.9-85.1,1142.8,248.2,633.6c39.5-60.4,372.3-553.7,904-623.3,13.1-1.7,22.8-2.6,31.3-3.5,82.2-8.7,592-54.7,1007.6,293.5,59.5,49.9,155.3,139.8,244.1,276.9C2759.8,1078.7,2760.9,1855.2,2348,2280.9Z"/>
        <g>
          <path class="cls-2" d="M393,1310c0,538.5,453,975.1,1011.9,975.1S2441.8,1829.5,2441.8,1291,1963.7,335,1404.9,335,393,771.6,393,1310Z"/>
          <g>
            <path class="cls-1" d="M2362.4,1073a5.7,5.7,0,0,0,1.8-.3,6.6,6.6,0,0,0,4.9-8.2,868.3,868.3,0,0,0-41.3-116.2,7.2,7.2,0,0,0-9.2-3.5,6.7,6.7,0,0,0-3.7,8.8,841.8,841.8,0,0,1,40.7,114.4A7,7,0,0,0,2362.4,1073Z"/>
            <path class="cls-1" d="M2207.7,768.3a7.1,7.1,0,0,0,4.2-1.4,6.6,6.6,0,0,0,1.4-9.4c-187.5-239.6-489.5-382.6-807.8-382.6-136,0-267.5,26.6-390.9,79a6.6,6.6,0,0,0-3.6,8.8,7.2,7.2,0,0,0,9.3,3.5c121.6-51.6,251.2-77.8,385.2-77.8,314,0,611.8,141,796.6,377.2A7.1,7.1,0,0,0,2207.7,768.3Z"/>
          </g>
          <path class="cls-3" d="M530.6,1310c0,466.2,392.2,844,876,844s897.5-394.3,897.5-860.5-413.8-827.4-897.5-827.4S530.6,843.9,530.6,1310Z"/>
          <path class="cls-3" d="M530.6,1310c0-466.1,392.2-843.9,876-843.9,261.9,0,503.3,106,669.7,277.1l-674.8,541-138.7,858.5C847.5,2076.6,530.6,1729,530.6,1310Z"/>
          <path class="cls-4" d="M649.9,1251.4c0,420.6,361.2,761.7,806.9,761.7s826.9-356,826.9-776.6-381.3-746.8-826.9-746.8S649.9,830.7,649.9,1251.4Z"/>
          <path class="cls-2" d="M2080.3,1266.3c2.2,35.8,34,63.2,71.2,61.1s65.6-32.8,63.4-68.7-34-63.2-71.2-61.1S2078.1,1230.4,2080.3,1266.3Z"/>
          <path class="cls-5" d="M623.4,1348c2.1,35.8,34,63.2,71.2,61.1s65.6-32.8,63.4-68.7-34-63.1-71.2-61.1S621.2,1312.2,623.4,1348Z"/>
          <path class="cls-2" d="M1538.1,1931.1c-36.6,6.4-60.9,40.3-54.2,75.6s41.8,58.7,78.5,52.2,60.9-40.3,54.2-75.6S1574.8,1924.6,1538.1,1931.1Z"/>
          <path class="cls-2" d="M1275.9,547.8c-36.6,6.4-60.9,40.3-54.2,75.6s41.8,58.7,78.5,52.2,60.9-40.3,54.2-75.6S1312.6,541.3,1275.9,547.8Z"/>
          <path class="cls-5" d="M1058.7,1968.2c-6.8,16.7-5.1,32.3,3.8,34.9s21.8-8.9,28.7-25.5,5.1-32.3-3.8-34.9S1065.6,1951.6,1058.7,1968.2Z"/>
          <path class="cls-2" d="M1644.8,656.2c-6.8,16.6-5.1,32.2,3.9,34.8s21.7-8.8,28.6-25.5,5.1-32.2-3.8-34.8S1651.7,639.5,1644.8,656.2Z"/>
          <path class="cls-5" d="M752.7,1718.8c-14.8,10.8-21.8,25-15.5,31.7s23.4,3.4,38.2-7.5,21.8-25,15.5-31.6S767.5,1708,752.7,1718.8Z"/>
          <path class="cls-2" d="M1960.6,890.7c-14.8,10.8-21.8,25-15.5,31.7s23.4,3.3,38.2-7.5,21.8-25,15.5-31.7S1975.5,879.9,1960.6,890.7Z"/>
          <path class="cls-5" d="M714.3,975.9c-16.8-7.7-33.1-7.1-36.4,1.3s7.7,21.6,24.5,29.3,33.1,7.1,36.3-1.4S731,983.6,714.3,975.9Z"/>
          <path class="cls-5" d="M2033.6,1627.3c-16.8-7.7-33-7.1-36.3,1.3s7.7,21.5,24.5,29.2,33,7.1,36.3-1.3S2050.4,1635,2033.6,1627.3Z"/>
          <path class="cls-6" d="M993,698.4c-10.2-15-24.4-22.6-31.8-17s-5,22.2,5.2,37.2,24.4,22.6,31.8,17S1003.2,713.4,993,698.4Z"/>
          <path class="cls-2" d="M1769.6,1915.1c-10.2-14.9-24.4-22.6-31.8-17s-5,22.3,5.2,37.3,24.4,22.6,31.8,17S1779.8,1930.1,1769.6,1915.1Z"/>
          <path class="cls-7" d="M1433.8,1283.9l541.8,260.3c10.5,5.1,22.7-2.5,22.4-13.8l-2.1-67.2c-.5-13.1,15.5-20.3,25.7-11.7l391.7,332.3c12,10.2,2.1,29.1-13.5,25.9l-504.5-103.8c-12-2.5-16.4-16.9-7.6-25.3l59-56.1a14.6,14.6,0,0,0-3.1-23.6l-524.4-290.7a14.7,14.7,0,0,1-5.9-20.1h0A15.8,15.8,0,0,1,1433.8,1283.9Z"/>
          <path class="cls-8" d="M2352.4,1782.3a13.2,13.2,0,0,0,11.9-7.3,12.6,12.6,0,0,0-3.5-15.6l-85.8-68.2a7.1,7.1,0,0,0-9.8.9,6.6,6.6,0,0,0,1,9.5l85.7,68.2c-114.2-25.1-381.7-81.3-387.3-81.8a6.9,6.9,0,0,0-7.6,6,6.8,6.8,0,0,0,6,7.4c8.1,1.2,213.1,44.1,386.4,80.6A15.3,15.3,0,0,0,2352.4,1782.3Z"/>
          <path class="cls-9" d="M1377.3,1258.3l1.1-510.4c-.2-11.3-12.8-18.3-23.1-12.8l-60.9,32.7c-11.8,6.4-25.9-4-22.6-16.7l126-487.9c3.9-15,25.8-15.2,30-.4l136.5,479.4c3.2,11.4-8.1,21.8-19.8,18.1l-78.9-24.7c-9.7-3-19.8,3.7-20.3,13.6l-37,509.5c-.3,8.1-7.4,14.4-15.8,14.3h0A15.4,15.4,0,0,1,1377.3,1258.3Z"/>
          <path class="cls-8" d="M1522.4,695.4a8,8,0,0,0,2.6-.5,6.7,6.7,0,0,0,4-8.6c-2.6-7.4-57.3-202.5-103.5-367.6a13,13,0,0,0-13.2-9.6,13.3,13.3,0,0,0-12.8,10.2L1376,424.1a6.6,6.6,0,0,0,5.4,7.9,6.9,6.9,0,0,0,8.3-5.1l23.5-104.7c29.4,109.2,100.7,363.9,102.7,368.9A7.1,7.1,0,0,0,1522.4,695.4Z"/>
          <ellipse class="cls-10" cx="1411.1" cy="1285.6" rx="72" ry="69.4"/>
        </g>
        <g>
          <path class="cls-11" d="M665.7,2623.5c46.5,4,127.3,10.6,191,13.4,38.3,1.6,60.3-2.1,73-7.2,0,1.4,0,2.8-.1,4.1a13.1,13.1,0,0,1-12.5,12.4c-120.3,6.7-216.1,2.3-250.1.3-7.1-.5-11.3-8.1-7.7-14.1A73.5,73.5,0,0,1,665.7,2623.5Z"/>
          <path class="cls-12" d="M856.7,2636.9c-63.7-2.8-144.5-9.4-191-13.4,45.7-56.2,191-94,191-94h41c28.3,40.7,32.4,79.4,32,100.2C917,2634.8,895,2638.5,856.7,2636.9Z"/>
          <path class="cls-13" d="M904.7,2462.5l-3.9,76a17.4,17.4,0,0,1-14.8,16.3,67.9,67.9,0,0,1-30.8-2.5,20.6,20.6,0,0,1-13.8-15.8l-13.3-74Z"/>
          <g>
            <path class="cls-14" d="M1380.9,2711.1c20.1-3.6,29.3-17.1,33.1-31.6,0,.1.1.2.1.4,3,15.2-3.9,31.1-17.7,38.6-16.6,9.1-34.8,10.7-49,9.9a45.3,45.3,0,0,1-36.7-21.9v-.2C1325.8,2716.1,1347.2,2717.2,1380.9,2711.1Z"/>
            <path class="cls-15" d="M1285.7,2485.9h33.8c51.5-1.3,83.9,139.2,94.5,193.6-3.8,14.5-13,28-33.1,31.6-33.7,6.1-55.1,5-70.3-4.8-27.8-47.3-41.6-116.7-48.3-157.1C1254.8,2503.1,1285.7,2485.9,1285.7,2485.9Z"/>
          </g>
          <path class="cls-16" d="M1315.2,2415.4l18.7,74.7a20.1,20.1,0,0,1-10.5,23c-10.5,5.4-25.3,11.1-38.9,9.4a16.7,16.7,0,0,1-13.8-11.3l-27.6-78.6Z"/>
          <path class="cls-17" d="M654.2,1431.2S822.1,2480.7,819.4,2486.5c0,0,46.3,21.1,96.9,2.7,0,0-15.2-561.1-50.8-776.2,0,0,286.6,501.5,377.6,751.4,0,0,47.4-5.7,86.7-31.6,0,0-308.5-902.6-390.8-1022.8Z"/>
          <path class="cls-18" d="M627.7,698.3a127.2,127.2,0,0,0-35.1,7c-123.1,42.6-219.7,31.9-294-1.7-17.2,22.9-45,70.4-57,150.3,135.2,100.7,305.3,74.2,360.9,61.7-14.6,108.1-14.5,278.9,45,529.4a15.6,15.6,0,0,0,14,12c38,3.1,165.1,10.6,287.4-16.9a8.9,8.9,0,0,0,6.3-12.2l-1.1-2.6a169,169,0,0,1-13.3-75.9c4.4-78.9,25.7-257.2,70.9-379.4q3.9,6.6,7.5,13.2c8.2-80.4,39-159.5,60.7-239.2C902.8,687.7,692.3,694.6,627.7,698.3Z"/>
          <path class="cls-19" d="M903.9,552.4s12.4,130.8,23.3,169.5A13.2,13.2,0,0,1,921,737c-18.5,10.5-62.8,27.8-123.5-2a27.4,27.4,0,0,1-15.2-25.9l5.3-126.3Z"/>
          <g>
            <path class="cls-20" d="M784.9,385.1S745.4,476,742.7,523.7s-12.9,78.6,42.2,88.2,101.6-17.8,126.8-65.3c0,0,39.4-73.3,30.6-103.2S784.9,385.1,784.9,385.1Z"/>
            <path class="cls-21" d="M892.9,512.4l-3.2-1.4a7.6,7.6,0,0,1-3.7-10.4c7.8-15,23-49.5,3.4-57.5S851,431.3,832,425.2s-51.8-11.5-61-30.1c-2.7-5.4.2-11.7,3.1-17l16.1-29.5c4.5-8.4,9.2-16.9,16.4-23,16.6-14.1,36.3-1.8,54.6,1.6,68,12.6,113,40.1,114.1,87.1a3.8,3.8,0,0,0,5.8,3.1c5-3,13.1-4.5,23.8,4.6,18.7,15.7,11.1,56.4-29.9,90a3.7,3.7,0,0,0,.2,6c7.4,4.8,18.5,16.3-10.2,31.6s-51.8,14.6-60.4,13.2a3.7,3.7,0,0,1-3-4.5l9.1-41.4a3.8,3.8,0,0,0-3.7-4.5Z"/>
            <path class="cls-22" d="M891.2,521.1s15-58,41.1-41.8-13.5,65.1-34.5,67.3Z"/>
          </g>
          <g>
            <path class="cls-9" d="M752.2,400.6c64.7-191.9,333.2-70.9,244.7,96.2C903.9,454.7,795.7,387.3,752.2,400.6Z"/>
            <path class="cls-9" d="M910.4,451.6,741.7,473.7a12,12,0,0,1-11.2-4.5c-19.5-24.7-44.3-38.4-73.4-43.5a3.4,3.4,0,0,1-.1-6.7l101.7-23.8h.4c51.9-4.4,102.4,19,152.3,52.4A2.2,2.2,0,0,1,910.4,451.6Z"/>
          </g>
          <g>
            <path class="cls-23" d="M947.1,1420.2a69.3,69.3,0,0,0,70.5-69.2V1043.4a73.8,73.8,0,0,0-72.9-73.8c-121.3-1.3-371.5-1.4-576.2,15.9a55.3,55.3,0,0,0-50.7,53.2l-19.2,297.5a70.6,70.6,0,0,0,69.1,73Z"/>
            <path class="cls-6" d="M947.3,1076.7c.5,26.1-.2,67.7-.9,94.5a23.7,23.7,0,0,1-26.4,23l-99.9-11.7a23.8,23.8,0,0,1-20.7-27.1l12.3-81.7a23.7,23.7,0,0,1,23.4-20.2h88.5A23.6,23.6,0,0,1,947.3,1076.7Z"/>
            <path class="cls-2" d="M686.4,1231.6l-83.3,9a18.8,18.8,0,0,1-20.7-20.1l18.2-247.7c34.9-1.1,69.4-1.9,102.6-2.5v242.6A18.8,18.8,0,0,1,686.4,1231.6Z"/>
            <path class="cls-9" d="M652.3,1188.6a8.4,8.4,0,0,1-8.4,7.9h-.5a8.2,8.2,0,0,1-7.8-8.8l12.5-216.2,16.8-.4Z"/>
            <g>
              <path class="cls-24" d="M901.2,1154.7a2.7,2.7,0,0,0,2.7-2.6l4.4-68.1a2.8,2.8,0,0,0-2.7-3,2.7,2.7,0,0,0-2.9,2.6l-4.3,68.1a2.7,2.7,0,0,0,2.6,3Z"/>
              <path class="cls-25" d="M892.3,1154.7a2.8,2.8,0,0,0,2.8-2.7l2.2-69.4a2.7,2.7,0,0,0-2.7-2.9,2.7,2.7,0,0,0-2.9,2.7l-2.2,69.4a2.7,2.7,0,0,0,2.7,2.9Z"/>
              <path class="cls-26" d="M880.2,1154.7a2.8,2.8,0,0,1-2.6-2.9c1.1-23.3,3.2-67.8,3.2-69.3a2.8,2.8,0,0,1,2.8-2.8,2.9,2.9,0,0,1,2.8,2.8c0,1.1-2.7,58.1-3.3,69.5a2.8,2.8,0,0,1-2.8,2.7Zm.5-72.2h0Z"/>
              <path class="cls-27" d="M861.7,1157.5a5.6,5.6,0,0,0,5.6-5.4c2.4-67.2,1.9-68.8,1.7-69.8a5.7,5.7,0,0,0-6.9-3.9,5.6,5.6,0,0,0-4,6.1c.1,4.1-1.1,43.2-2,67.2a5.6,5.6,0,0,0,5.4,5.8Z"/>
              <path class="cls-28" d="M849.6,1154.7a2.8,2.8,0,0,0,2.8-2.8v-68.1a2.8,2.8,0,0,0-2.8-2.8,2.9,2.9,0,0,0-2.8,2.8v68.1A2.9,2.9,0,0,0,849.6,1154.7Z"/>
              <path class="cls-29" d="M839.9,1154.7a2.7,2.7,0,0,0,2.7-2.7c.6-23.7,1.8-62.3,2.9-67a2.8,2.8,0,0,0-3.9-3.7c-1.5,1-3,2-4.5,70.5a2.7,2.7,0,0,0,2.7,2.9Z"/>
              <path class="cls-30" d="M916.2,1160.9a5.7,5.7,0,0,0,5.6-5.3l3.7-71.5a5.6,5.6,0,0,0-11.2-.6l-3.7,71.5a5.6,5.6,0,0,0,5.3,5.9Z"/>
            </g>
          </g>
          <g>
            <path class="cls-31" d="M741.1,981a51.7,51.7,0,0,0,52.8-51.7V699a55.1,55.1,0,0,0-54.6-55.2c-90.8-1-278.1-1.1-431.4,11.8A41.5,41.5,0,0,0,270,695.5L255.7,918.2a52.7,52.7,0,0,0,51.7,54.6Z"/>
            <path class="cls-6" d="M741.3,723.9c.4,19.6-.2,50.7-.7,70.8a17.7,17.7,0,0,1-19.8,17.2l-74.7-8.8a17.7,17.7,0,0,1-15.5-20.2l9.1-61.2a17.8,17.8,0,0,1,17.6-15.2h66.2A17.8,17.8,0,0,1,741.3,723.9Z"/>
            <path class="cls-2" d="M546,839.9l-62.4,6.7a14.1,14.1,0,0,1-15.5-15l13.6-185.5c26.2-.8,51.9-1.4,76.8-1.8V825.9A14.1,14.1,0,0,1,546,839.9Z"/>
            <path class="cls-9" d="M520.4,807.7a6.2,6.2,0,0,1-6.2,5.9h-.4a6.2,6.2,0,0,1-5.9-6.6l9.4-161.9,12.6-.2Z"/>
            <g>
              <path class="cls-32" d="M706.7,782.3a2.1,2.1,0,0,0,2.1-1.9l3.2-51a2.1,2.1,0,1,0-4.1-.3l-3.3,51a2.2,2.2,0,0,0,2,2.2Z"/>
              <path class="cls-33" d="M700.1,782.3a2,2,0,0,0,2-2l1.7-52a2,2,0,0,0-2-2.1,1.9,1.9,0,0,0-2.1,2l-1.7,52a2,2,0,0,0,2,2.1Z"/>
              <path class="cls-34" d="M691,782.3a2.1,2.1,0,0,1-2-2.2c.9-17.4,2.5-50.7,2.5-51.9a2,2,0,0,1,2.1-2,2.1,2.1,0,0,1,2.1,2.1c0,.8-2.1,43.5-2.5,52a2.1,2.1,0,0,1-2.1,2Zm.4-54h0Z"/>
              <path class="cls-35" d="M677.2,784.4a4.3,4.3,0,0,0,4.2-4c1.7-50.4,1.4-51.5,1.2-52.3a4.2,4.2,0,0,0-5.1-2.9,4.3,4.3,0,0,0-3.1,4.6c.2,3-.8,32.3-1.4,50.3a4.1,4.1,0,0,0,4,4.3Z"/>
              <path class="cls-36" d="M668.1,782.3a2.1,2.1,0,0,0,2.1-2.1v-51a2,2,0,0,0-2.1-2,2.1,2.1,0,0,0-2.1,2v51A2.1,2.1,0,0,0,668.1,782.3Z"/>
              <path class="cls-37" d="M660.8,782.3a2,2,0,0,0,2.1-2c.4-17.7,1.3-46.7,2.2-50.2a2.1,2.1,0,0,0-3-2.7c-1.1.7-2.2,1.4-3.4,52.8a2.1,2.1,0,0,0,2.1,2.1Z"/>
              <path class="cls-38" d="M718,787a4.2,4.2,0,0,0,4.1-4l2.8-53.5a4.2,4.2,0,1,0-8.3-.5l-2.8,53.6a4.2,4.2,0,0,0,3.9,4.4Z"/>
            </g>
          </g>
          <path class="cls-39" d="M235.2,776.9c12.8-3.1,41.4-41.8,44.4-27.7s-5.6,32.1-4.3,38.1,10.9,39.7,3.3,53.9c-5.5,10.2-16.3,42.3-21.9,59.3-1.9,5.7-3.4,13.2-9.3,12.5s-10.5-8.6-11.1-14.5C236.1,896.1,222.5,780,235.2,776.9Z"/>
          <g>
            <path class="cls-40" d="M1148.2,824.7c-15.7-36-65.7-79.9-68.3-80.7-21.7,79.7-60,145.6-68.2,226,53.6,98.5,41.3,214.6,7.9,271.1a545.9,545.9,0,0,1,52.4,99.2C1278.2,1216.9,1196.5,935.6,1148.2,824.7Z"/>
            <path class="cls-41" d="M883.4,1429.6l-178.5-3.9s155.6-44,165.3-32c0,0,96.5-63.4,149.4-152.6a545.9,545.9,0,0,1,52.4,99.2C1024.6,1368.1,962.3,1416.5,883.4,1429.6Z"/>
            <path class="cls-42" d="M888.4,1398.7s3.7,71.1-89.7,60.8c-50.7-5.6-132.6-52.9-132.6-52.9S879.6,1406,888.4,1398.7Z"/>
          </g>
        </g>
      </g>
    </g>
  </g>
</svg>
