<svg xmlns="http://www.w3.org/2000/svg" viewBox="0 0 465.7 447.6">
  <defs>
    <style>
      .cls-1 {
        fill: #f5f5f5;
      }

      .cls-2 {
        fill: #e0e0e0;
      }

      .cls-3 {
        fill: #daff01;
      }

      .cls-10, .cls-11, .cls-4, .cls-6, .cls-7 {
        fill: #fff;
      }

      .cls-4 {
        opacity: 0.6;
      }

      .cls-5 {
        fill: #7b892c;
      }

      .cls-6 {
        opacity: 0.2;
      }

      .cls-7 {
        opacity: 0.45;
      }

      .cls-8 {
        opacity: 0.22;
      }

      .cls-9 {
        fill: #9353ff;
      }

      .cls-10 {
        opacity: 0.4;
      }

      .cls-11 {
        opacity: 0.15;
      }

      .cls-12 {
        fill: #9e71ff;
      }

      .cls-13 {
        fill: #6f48ff;
      }

      .cls-14 {
        fill: #7d5bd8;
      }

      .cls-15 {
        fill: #f0f0f0;
      }
    </style>
  </defs>
  <g id="Camada_2" data-name="Camada 2">
    <g id="Floor">
      <path id="Floor-2" data-name="Floor" class="cls-1" d="M71.3,219.8C-19,271.9-19,356.4,71.3,408.5s236.5,52.1,326.8,0,90.2-136.6-.1-188.7S161.5,167.7,71.3,219.8Z"/>
    </g>
    <g id="Shadows">
      <path id="Shadow" class="cls-2" d="M398.2,335.4,275.6,406.2c-11.3,6.5-29.9,6.5-41.2,0L54.9,302.5c-6.7-3.8-6.7-10.1,0-14l122.5-70.8c11.4-6.5,30-6.5,41.3,0L398.2,321.4C404.9,325.2,404.9,331.5,398.2,335.4Z"/>
    </g>
    <g id="Shopping_Basket" data-name="Shopping Basket">
      <g id="Basket">
        <g id="Corpo_Fundo" data-name="Corpo Fundo">
          <g>
            <path class="cls-3" d="M65,178.5,75.7,289.4l129.1-63.9V97.8Zm116.9-46a6.2,6.2,0,0,1,1.9-1.4l3.6-2.1a6.1,6.1,0,0,1,2.3-.9,6.6,6.6,0,0,1,.3,2.1v11.5a11.5,11.5,0,0,1-.3,2.6,14,14,0,0,1-6.2,8.7l-3.4,2a6.1,6.1,0,0,1-2.3.9,6.6,6.6,0,0,1-.3-2.1l-.2-11.5A14.3,14.3,0,0,1,181.9,132.5Zm-31.4,18.1a13.3,13.3,0,0,1,1.9-1.4l3.6-2.1a6.1,6.1,0,0,1,2.3-.9,6.6,6.6,0,0,1,.3,2.1v11.5a11.5,11.5,0,0,1-.3,2.6,14.5,14.5,0,0,1-6.2,8.8l-3.4,1.9a6.1,6.1,0,0,1-2.3.9,6.6,6.6,0,0,1-.3-2.1l-.2-11.5A14.3,14.3,0,0,1,150.5,150.6ZM120.2,168a10.2,10.2,0,0,1,1.8-1.3l3.7-2.1a5.9,5.9,0,0,1,2.4-.9,6.4,6.4,0,0,1,.3,2l.2,11.6a6.7,6.7,0,0,1-.2,2.4,14.5,14.5,0,0,1-6.1,8.7l-3.4,1.9a6.9,6.9,0,0,1-2.5.9,5.8,5.8,0,0,1-.3-1.9l-.4-11.6C115.6,174.4,117.5,170.5,120.2,168ZM86.1,206.7l-.6-11.6a13,13,0,0,1,4.5-9.6,10.9,10.9,0,0,1,1.7-1.3l3.6-2.1a7.3,7.3,0,0,1,2.6-.9,5.7,5.7,0,0,1,.3,1.8l.5,11.6a19.4,19.4,0,0,1-.2,2.4,14.1,14.1,0,0,1-6,8.6l-3.4,1.9a4.8,4.8,0,0,1-2.6.9A8.5,8.5,0,0,1,86.1,206.7Zm20.7,32.4-.6-11.7c-.2-3.2,1.7-7.1,4.4-9.6a10.4,10.4,0,0,1,1.7-1.2l3.6-2.1a7.3,7.3,0,0,1,2.6-.9,4.8,4.8,0,0,1,.3,1.8l.5,11.6a9.7,9.7,0,0,1-.2,2.4,13.5,13.5,0,0,1-6,8.5l-3.4,2a7.3,7.3,0,0,1-2.6.9A4.7,4.7,0,0,1,106.8,239.1Zm29.9-17.4-.4-11.6c-.1-3.3,1.9-7.2,4.5-9.7a8,8,0,0,1,1.9-1.3l3.6-2.1a6.5,6.5,0,0,1,2.4-.9,6,6,0,0,1,.3,2l.3,11.5a11.3,11.3,0,0,1-.3,2.5,14.5,14.5,0,0,1-6.1,8.7l-3.4,1.9a6.9,6.9,0,0,1-2.5.9A5.8,5.8,0,0,1,136.7,221.7Zm30-17.4V192.8a13.8,13.8,0,0,1,4.5-9.8,7.7,7.7,0,0,1,1.9-1.4l3.7-2.1a5.5,5.5,0,0,1,2.3-.9,6.6,6.6,0,0,1,.3,2.1v11.5a8.2,8.2,0,0,1-.4,2.6,14,14,0,0,1-6.2,8.7l-3.4,2a5.8,5.8,0,0,1-2.3.8A5.6,5.6,0,0,1,166.7,204.3Z"/>
            <path class="cls-4" d="M65,178.5,75.7,289.4l129.1-63.9V97.8Zm116.9-46a6.2,6.2,0,0,1,1.9-1.4l3.6-2.1a6.1,6.1,0,0,1,2.3-.9,6.6,6.6,0,0,1,.3,2.1v11.5a11.5,11.5,0,0,1-.3,2.6,14,14,0,0,1-6.2,8.7l-3.4,2a6.1,6.1,0,0,1-2.3.9,6.6,6.6,0,0,1-.3-2.1l-.2-11.5A14.3,14.3,0,0,1,181.9,132.5Zm-31.4,18.1a13.3,13.3,0,0,1,1.9-1.4l3.6-2.1a6.1,6.1,0,0,1,2.3-.9,6.6,6.6,0,0,1,.3,2.1v11.5a11.5,11.5,0,0,1-.3,2.6,14.5,14.5,0,0,1-6.2,8.8l-3.4,1.9a6.1,6.1,0,0,1-2.3.9,6.6,6.6,0,0,1-.3-2.1l-.2-11.5A14.3,14.3,0,0,1,150.5,150.6ZM120.2,168a10.2,10.2,0,0,1,1.8-1.3l3.7-2.1a5.9,5.9,0,0,1,2.4-.9,6.4,6.4,0,0,1,.3,2l.2,11.6a6.7,6.7,0,0,1-.2,2.4,14.5,14.5,0,0,1-6.1,8.7l-3.4,1.9a6.9,6.9,0,0,1-2.5.9,5.8,5.8,0,0,1-.3-1.9l-.4-11.6C115.6,174.4,117.5,170.5,120.2,168ZM86.1,206.7l-.6-11.6a13,13,0,0,1,4.5-9.6,10.9,10.9,0,0,1,1.7-1.3l3.6-2.1a7.3,7.3,0,0,1,2.6-.9,5.7,5.7,0,0,1,.3,1.8l.5,11.6a19.4,19.4,0,0,1-.2,2.4,14.1,14.1,0,0,1-6,8.6l-3.4,1.9a4.8,4.8,0,0,1-2.6.9A8.5,8.5,0,0,1,86.1,206.7Zm20.7,32.4-.6-11.7c-.2-3.2,1.7-7.1,4.4-9.6a10.4,10.4,0,0,1,1.7-1.2l3.6-2.1a7.3,7.3,0,0,1,2.6-.9,4.8,4.8,0,0,1,.3,1.8l.5,11.6a9.7,9.7,0,0,1-.2,2.4,13.5,13.5,0,0,1-6,8.5l-3.4,2a7.3,7.3,0,0,1-2.6.9A4.7,4.7,0,0,1,106.8,239.1Zm29.9-17.4-.4-11.6c-.1-3.3,1.9-7.2,4.5-9.7a8,8,0,0,1,1.9-1.3l3.6-2.1a6.5,6.5,0,0,1,2.4-.9,6,6,0,0,1,.3,2l.3,11.5a11.3,11.3,0,0,1-.3,2.5,14.5,14.5,0,0,1-6.1,8.7l-3.4,1.9a6.9,6.9,0,0,1-2.5.9A5.8,5.8,0,0,1,136.7,221.7Zm30-17.4V192.8a13.8,13.8,0,0,1,4.5-9.8,7.7,7.7,0,0,1,1.9-1.4l3.7-2.1a5.5,5.5,0,0,1,2.3-.9,6.6,6.6,0,0,1,.3,2.1v11.5a8.2,8.2,0,0,1-.4,2.6,14,14,0,0,1-6.2,8.7l-3.4,2a5.8,5.8,0,0,1-2.3.8A5.6,5.6,0,0,1,166.7,204.3Z"/>
            <g>
              <path class="cls-5" d="M123.2,229.5a9.7,9.7,0,0,1-.2,2.4,13.7,13.7,0,0,1-6,8.6l-3.3,1.9c-3,1.7-5.7,1-6.6-1.6a7.3,7.3,0,0,0,2.6-.9l3.4-2a13.5,13.5,0,0,0,6-8.5,9.7,9.7,0,0,0,.2-2.4l-.5-11.6a4.8,4.8,0,0,0-.3-1.8c2.4-.3,4.1,1.3,4.2,4.3Z"/>
              <path class="cls-5" d="M102.6,197.1a9.7,9.7,0,0,1-.2,2.4,13.7,13.7,0,0,1-6,8.6L93,210c-3,1.7-5.6,1-6.5-1.6a4.8,4.8,0,0,0,2.6-.9l3.4-1.9a14.1,14.1,0,0,0,6-8.6,19.4,19.4,0,0,0,.2-2.4L98.2,183a5.7,5.7,0,0,0-.3-1.8c2.4-.2,4.1,1.4,4.2,4.4Z"/>
              <path class="cls-5" d="M183.2,183.2v11.5a12.2,12.2,0,0,1-.3,2.6c-.9,3.5-3.3,7.1-6.2,8.7l-3.4,2c-3,1.7-5.5.9-6.3-1.7a5.8,5.8,0,0,0,2.3-.8l3.4-2a14,14,0,0,0,6.2-8.7,8.2,8.2,0,0,0,.4-2.6V180.7a6.6,6.6,0,0,0-.3-2.1C181.4,178.3,183.2,180,183.2,183.2Z"/>
              <path class="cls-5" d="M194,132.7v11.5a7.8,7.8,0,0,1-.4,2.6,14,14,0,0,1-6.2,8.7l-3.4,2c-2.9,1.7-5.4.9-6.2-1.6a6.1,6.1,0,0,0,2.3-.9l3.4-2a14,14,0,0,0,6.2-8.7,11.5,11.5,0,0,0,.3-2.6V130.2a6.6,6.6,0,0,0-.3-2.1C192.2,127.8,194,129.5,194,132.7Z"/>
              <path class="cls-5" d="M132.6,179.8a10.5,10.5,0,0,1-.3,2.4,14.5,14.5,0,0,1-6.1,8.7l-3.4,1.9c-3,1.7-5.5,1-6.4-1.6a6.9,6.9,0,0,0,2.5-.9l3.4-1.9a14.5,14.5,0,0,0,6.1-8.7,6.7,6.7,0,0,0,.2-2.4l-.2-11.6a6.4,6.4,0,0,0-.3-2c2.4-.3,4.2,1.4,4.2,4.5Z"/>
              <path class="cls-5" d="M153.2,212.1a11.3,11.3,0,0,1-.3,2.5,14.5,14.5,0,0,1-6.1,8.7l-3.4,1.9c-2.9,1.7-5.5.9-6.4-1.6a6.9,6.9,0,0,0,2.5-.9l3.4-1.9a14.5,14.5,0,0,0,6.1-8.7,11.3,11.3,0,0,0,.3-2.5l-.3-11.5a6,6,0,0,0-.3-2c2.4-.3,4.2,1.4,4.2,4.5Z"/>
              <path class="cls-5" d="M162.6,150.8v11.6a7.7,7.7,0,0,1-.4,2.5,14.5,14.5,0,0,1-6.2,8.8l-3.4,1.9c-2.9,1.7-5.4.9-6.2-1.6a6.1,6.1,0,0,0,2.3-.9l3.4-1.9a14.5,14.5,0,0,0,6.2-8.8,11.5,11.5,0,0,0,.3-2.6V148.3a6.6,6.6,0,0,0-.3-2.1C160.8,145.9,162.6,147.6,162.6,150.8Z"/>
              <path class="cls-6" d="M123.2,229.5a9.7,9.7,0,0,1-.2,2.4,13.7,13.7,0,0,1-6,8.6l-3.3,1.9c-3,1.7-5.7,1-6.6-1.6a7.3,7.3,0,0,0,2.6-.9l3.4-2a13.5,13.5,0,0,0,6-8.5,9.7,9.7,0,0,0,.2-2.4l-.5-11.6a4.8,4.8,0,0,0-.3-1.8c2.4-.3,4.1,1.3,4.2,4.3Z"/>
              <path class="cls-6" d="M102.6,197.1a9.7,9.7,0,0,1-.2,2.4,13.7,13.7,0,0,1-6,8.6L93,210c-3,1.7-5.6,1-6.5-1.6a4.8,4.8,0,0,0,2.6-.9l3.4-1.9a14.1,14.1,0,0,0,6-8.6,19.4,19.4,0,0,0,.2-2.4L98.2,183a5.7,5.7,0,0,0-.3-1.8c2.4-.2,4.1,1.4,4.2,4.4Z"/>
              <path class="cls-6" d="M183.2,183.2v11.5a12.2,12.2,0,0,1-.3,2.6c-.9,3.5-3.3,7.1-6.2,8.7l-3.4,2c-3,1.7-5.5.9-6.3-1.7a5.8,5.8,0,0,0,2.3-.8l3.4-2a14,14,0,0,0,6.2-8.7,8.2,8.2,0,0,0,.4-2.6V180.7a6.6,6.6,0,0,0-.3-2.1C181.4,178.3,183.2,180,183.2,183.2Z"/>
              <path class="cls-6" d="M194,132.7v11.5a7.8,7.8,0,0,1-.4,2.6,14,14,0,0,1-6.2,8.7l-3.4,2c-2.9,1.7-5.4.9-6.2-1.6a6.1,6.1,0,0,0,2.3-.9l3.4-2a14,14,0,0,0,6.2-8.7,11.5,11.5,0,0,0,.3-2.6V130.2a6.6,6.6,0,0,0-.3-2.1C192.2,127.8,194,129.5,194,132.7Z"/>
              <path class="cls-6" d="M132.6,179.8a10.5,10.5,0,0,1-.3,2.4,14.5,14.5,0,0,1-6.1,8.7l-3.4,1.9c-3,1.7-5.5,1-6.4-1.6a6.9,6.9,0,0,0,2.5-.9l3.4-1.9a14.5,14.5,0,0,0,6.1-8.7,6.7,6.7,0,0,0,.2-2.4l-.2-11.6a6.4,6.4,0,0,0-.3-2c2.4-.3,4.2,1.4,4.2,4.5Z"/>
              <path class="cls-6" d="M153.2,212.1a11.3,11.3,0,0,1-.3,2.5,14.5,14.5,0,0,1-6.1,8.7l-3.4,1.9c-2.9,1.7-5.5.9-6.4-1.6a6.9,6.9,0,0,0,2.5-.9l3.4-1.9a14.5,14.5,0,0,0,6.1-8.7,11.3,11.3,0,0,0,.3-2.5l-.3-11.5a6,6,0,0,0-.3-2c2.4-.3,4.2,1.4,4.2,4.5Z"/>
              <path class="cls-6" d="M162.6,150.8v11.6a7.7,7.7,0,0,1-.4,2.5,14.5,14.5,0,0,1-6.2,8.8l-3.4,1.9c-2.9,1.7-5.4.9-6.2-1.6a6.1,6.1,0,0,0,2.3-.9l3.4-1.9a14.5,14.5,0,0,0,6.2-8.8,11.5,11.5,0,0,0,.3-2.6V148.3a6.6,6.6,0,0,0-.3-2.1C160.8,145.9,162.6,147.6,162.6,150.8Z"/>
            </g>
          </g>
          <g>
            <path class="cls-3" d="M204.8,97.8V225.5l170.6,98.6,20.1-116.2ZM344.7,199.6l3.7,2.1,1.6,1.1c2.7,2.4,4.6,6.3,4.4,9.5l-.9,11.7a7.5,7.5,0,0,1-.4,1.6,7.3,7.3,0,0,1-2.8-1l-3.3-1.9a13.6,13.6,0,0,1-5.9-8.5,17.9,17.9,0,0,1-.2-2.3l.8-11.6a4.7,4.7,0,0,1,.3-1.7A6,6,0,0,1,344.7,199.6Zm-30.3-17.5,3.6,2.1a6.6,6.6,0,0,1,1.7,1.2c2.8,2.5,4.7,6.4,4.5,9.6l-.6,11.6a8,8,0,0,1-.4,1.8,7.3,7.3,0,0,1-2.6-.9l-3.3-2a13.5,13.5,0,0,1-6-8.6,9.1,9.1,0,0,1-.3-2.3l.5-11.6a8.4,8.4,0,0,1,.3-1.8A7.3,7.3,0,0,1,314.4,182.1Zm-30.3-17.5,3.6,2.1a10.2,10.2,0,0,1,1.8,1.3,13.6,13.6,0,0,1,4.5,9.7l-.4,11.6a5.8,5.8,0,0,1-.3,1.9,7.6,7.6,0,0,1-2.5-.9l-3.3-2a13.6,13.6,0,0,1-6.1-8.6,11.3,11.3,0,0,1-.3-2.5l.2-11.5a6,6,0,0,1,.3-2A6.9,6.9,0,0,1,284.1,164.6Zm-30.4-17.5,3.6,2a9,9,0,0,1,1.9,1.5,14.3,14.3,0,0,1,4.6,9.8v11.5a5.9,5.9,0,0,1-.4,2,5.8,5.8,0,0,1-2.3-.8l-3.4-2a14.7,14.7,0,0,1-6.2-8.7,12.2,12.2,0,0,1-.3-2.6V148.3a6.6,6.6,0,0,1,.3-2.1A6.1,6.1,0,0,1,253.7,147.1Zm-31.4-18.2,3.6,2.1a9,9,0,0,1,1.9,1.5,14.1,14.1,0,0,1,4.6,9.7v11.6a6.5,6.5,0,0,1-.4,2,7.9,7.9,0,0,1-2.3-.8l-3.4-2a14.5,14.5,0,0,1-6.2-8.8,10.7,10.7,0,0,1-.3-2.5V130.2a6.6,6.6,0,0,1,.3-2.1A7.9,7.9,0,0,1,222.3,128.9Zm18.1,76.5-3.4-1.9a14.5,14.5,0,0,1-6.2-8.8,10.7,10.7,0,0,1-.3-2.5V180.7a6.6,6.6,0,0,1,.3-2.1,7.9,7.9,0,0,1,2.3.8l3.6,2.1a13.3,13.3,0,0,1,1.9,1.4,14.5,14.5,0,0,1,4.6,9.8l-.2,11.6a6.4,6.4,0,0,1-.3,2A6.1,6.1,0,0,1,240.4,205.4Zm29.8,17.2-3.4-1.9a14.2,14.2,0,0,1-6.1-8.7,6.5,6.5,0,0,1-.2-2.4l.2-11.6a6.4,6.4,0,0,1,.3-2,5.9,5.9,0,0,1,2.4.9l3.7,2.1a11,11,0,0,1,1.8,1.4,13.6,13.6,0,0,1,4.5,9.7l-.4,11.5a5.4,5.4,0,0,1-.3,1.9A6.9,6.9,0,0,1,270.2,222.6ZM300,239.8l-3.4-1.9a14.1,14.1,0,0,1-6-8.6,19.5,19.5,0,0,1-.2-2.3l.5-11.6a4.8,4.8,0,0,1,.3-1.8,4.8,4.8,0,0,1,2.6.9l3.6,2a10.9,10.9,0,0,1,1.7,1.3,13.2,13.2,0,0,1,4.5,9.6L303,239a8,8,0,0,1-.4,1.8A6.1,6.1,0,0,1,300,239.8ZM329.7,257l-3.3-1.9a13.3,13.3,0,0,1-5.9-8.5,9.3,9.3,0,0,1-.2-2.3l.8-11.6a4.7,4.7,0,0,1,.3-1.7,6,6,0,0,1,2.7,1l3.6,2,1.7,1.2c2.7,2.4,4.6,6.3,4.3,9.5l-.9,11.7a3.7,3.7,0,0,1-.3,1.5A5.4,5.4,0,0,1,329.7,257Zm29.7,17.1-3.3-1.9a12.7,12.7,0,0,1-5.8-8.4,7.4,7.4,0,0,1-.1-2.1l1-11.7a8.3,8.3,0,0,1,.4-1.5,7.3,7.3,0,0,1,2.8,1l3.6,2.1a5.6,5.6,0,0,1,1.5,1c2.8,2.4,4.7,6.3,4.4,9.4l-1.2,11.7a5.7,5.7,0,0,1-.4,1.4A5.9,5.9,0,0,1,359.4,274.1ZM380,241.8l-3.3-1.9a13.2,13.2,0,0,1-5.8-8.4,8.3,8.3,0,0,1-.1-2.2l1-11.6a7.5,7.5,0,0,1,.4-1.6,7.7,7.7,0,0,1,2.9,1l3.6,2.1a7.2,7.2,0,0,1,1.5,1.1c2.8,2.3,4.6,6.2,4.3,9.4l-1.2,11.6c-.1.6-.2,1-.3,1.4A5.8,5.8,0,0,1,380,241.8Z"/>
            <path class="cls-7" d="M204.8,97.8V225.5l170.6,98.6,20.1-116.2ZM344.7,199.6l3.7,2.1,1.6,1.1c2.7,2.4,4.6,6.3,4.4,9.5l-.9,11.7a7.5,7.5,0,0,1-.4,1.6,7.3,7.3,0,0,1-2.8-1l-3.3-1.9a13.6,13.6,0,0,1-5.9-8.5,17.9,17.9,0,0,1-.2-2.3l.8-11.6a4.7,4.7,0,0,1,.3-1.7A6,6,0,0,1,344.7,199.6Zm-30.3-17.5,3.6,2.1a6.6,6.6,0,0,1,1.7,1.2c2.8,2.5,4.7,6.4,4.5,9.6l-.6,11.6a8,8,0,0,1-.4,1.8,7.3,7.3,0,0,1-2.6-.9l-3.3-2a13.5,13.5,0,0,1-6-8.6,9.1,9.1,0,0,1-.3-2.3l.5-11.6a8.4,8.4,0,0,1,.3-1.8A7.3,7.3,0,0,1,314.4,182.1Zm-30.3-17.5,3.6,2.1a10.2,10.2,0,0,1,1.8,1.3,13.6,13.6,0,0,1,4.5,9.7l-.4,11.6a5.8,5.8,0,0,1-.3,1.9,7.6,7.6,0,0,1-2.5-.9l-3.3-2a13.6,13.6,0,0,1-6.1-8.6,11.3,11.3,0,0,1-.3-2.5l.2-11.5a6,6,0,0,1,.3-2A6.9,6.9,0,0,1,284.1,164.6Zm-30.4-17.5,3.6,2a9,9,0,0,1,1.9,1.5,14.3,14.3,0,0,1,4.6,9.8v11.5a5.9,5.9,0,0,1-.4,2,5.8,5.8,0,0,1-2.3-.8l-3.4-2a14.7,14.7,0,0,1-6.2-8.7,12.2,12.2,0,0,1-.3-2.6V148.3a6.6,6.6,0,0,1,.3-2.1A6.1,6.1,0,0,1,253.7,147.1Zm-31.4-18.2,3.6,2.1a9,9,0,0,1,1.9,1.5,14.1,14.1,0,0,1,4.6,9.7v11.6a6.5,6.5,0,0,1-.4,2,7.9,7.9,0,0,1-2.3-.8l-3.4-2a14.5,14.5,0,0,1-6.2-8.8,10.7,10.7,0,0,1-.3-2.5V130.2a6.6,6.6,0,0,1,.3-2.1A7.9,7.9,0,0,1,222.3,128.9Zm18.1,76.5-3.4-1.9a14.5,14.5,0,0,1-6.2-8.8,10.7,10.7,0,0,1-.3-2.5V180.7a6.6,6.6,0,0,1,.3-2.1,7.9,7.9,0,0,1,2.3.8l3.6,2.1a13.3,13.3,0,0,1,1.9,1.4,14.5,14.5,0,0,1,4.6,9.8l-.2,11.6a6.4,6.4,0,0,1-.3,2A6.1,6.1,0,0,1,240.4,205.4Zm29.8,17.2-3.4-1.9a14.2,14.2,0,0,1-6.1-8.7,6.5,6.5,0,0,1-.2-2.4l.2-11.6a6.4,6.4,0,0,1,.3-2,5.9,5.9,0,0,1,2.4.9l3.7,2.1a11,11,0,0,1,1.8,1.4,13.6,13.6,0,0,1,4.5,9.7l-.4,11.5a5.4,5.4,0,0,1-.3,1.9A6.9,6.9,0,0,1,270.2,222.6ZM300,239.8l-3.4-1.9a14.1,14.1,0,0,1-6-8.6,19.5,19.5,0,0,1-.2-2.3l.5-11.6a4.8,4.8,0,0,1,.3-1.8,4.8,4.8,0,0,1,2.6.9l3.6,2a10.9,10.9,0,0,1,1.7,1.3,13.2,13.2,0,0,1,4.5,9.6L303,239a8,8,0,0,1-.4,1.8A6.1,6.1,0,0,1,300,239.8ZM329.7,257l-3.3-1.9a13.3,13.3,0,0,1-5.9-8.5,9.3,9.3,0,0,1-.2-2.3l.8-11.6a4.7,4.7,0,0,1,.3-1.7,6,6,0,0,1,2.7,1l3.6,2,1.7,1.2c2.7,2.4,4.6,6.3,4.3,9.5l-.9,11.7a3.7,3.7,0,0,1-.3,1.5A5.4,5.4,0,0,1,329.7,257Zm29.7,17.1-3.3-1.9a12.7,12.7,0,0,1-5.8-8.4,7.4,7.4,0,0,1-.1-2.1l1-11.7a8.3,8.3,0,0,1,.4-1.5,7.3,7.3,0,0,1,2.8,1l3.6,2.1a5.6,5.6,0,0,1,1.5,1c2.8,2.4,4.7,6.3,4.4,9.4l-1.2,11.7a5.7,5.7,0,0,1-.4,1.4A5.9,5.9,0,0,1,359.4,274.1ZM380,241.8l-3.3-1.9a13.2,13.2,0,0,1-5.8-8.4,8.3,8.3,0,0,1-.1-2.2l1-11.6a7.5,7.5,0,0,1,.4-1.6,7.7,7.7,0,0,1,2.9,1l3.6,2.1a7.2,7.2,0,0,1,1.5,1.1c2.8,2.3,4.6,6.2,4.3,9.4l-1.2,11.6c-.1.6-.2,1-.3,1.4A5.8,5.8,0,0,1,380,241.8Z"/>
            <g>
              <path class="cls-5" d="M380,241.8l-3.3-1.9a13.2,13.2,0,0,1-5.8-8.4,8.3,8.3,0,0,1-.1-2.2l1-11.6a7.5,7.5,0,0,1,.4-1.6c-2.3-.1-4,1.3-4.3,4.1l-1,11.6a8.3,8.3,0,0,0,.1,2.2,13.2,13.2,0,0,0,5.8,8.4l3.3,1.9c3.1,1.8,5.9,1,6.9-1.6A5.8,5.8,0,0,1,380,241.8ZM329.7,257l-3.3-1.9a13.3,13.3,0,0,1-5.9-8.5,9.3,9.3,0,0,1-.2-2.3l.8-11.6a4.7,4.7,0,0,1,.3-1.7c-2.3-.2-4.1,1.3-4.2,4.2l-.8,11.6a9.3,9.3,0,0,0,.2,2.3,13.3,13.3,0,0,0,5.9,8.5l3.3,1.9c3,1.8,5.8,1,6.7-1.6A5.4,5.4,0,0,1,329.7,257Zm29.7,17.1-3.3-1.9a12.7,12.7,0,0,1-5.8-8.4,7.4,7.4,0,0,1-.1-2.1l1-11.7a8.3,8.3,0,0,1,.4-1.5,4,4,0,0,0-4.3,4l-1,11.7a5,5,0,0,0,.1,2.1,12.1,12.1,0,0,0,5.8,8.4l3.2,1.9c3.2,1.8,6,1.1,6.9-1.5A5.9,5.9,0,0,1,359.4,274.1Zm-9.1-49.5-3.3-1.9a13.6,13.6,0,0,1-5.9-8.5,17.9,17.9,0,0,1-.2-2.3l.8-11.6a4.7,4.7,0,0,1,.3-1.7c-2.3-.2-4,1.4-4.2,4.2l-.8,11.6a9,9,0,0,0,.2,2.3,13.3,13.3,0,0,0,5.9,8.5l3.3,1.9c3.1,1.8,5.8,1,6.7-1.5A7.3,7.3,0,0,1,350.3,224.6ZM300,239.8l-3.4-1.9a14.1,14.1,0,0,1-6-8.6,19.5,19.5,0,0,1-.2-2.3l.5-11.6a4.8,4.8,0,0,1,.3-1.8c-2.4-.3-4.1,1.3-4.2,4.3l-.5,11.6a9.3,9.3,0,0,0,.2,2.3,13.7,13.7,0,0,0,6,8.6l3.4,1.9c3,1.8,5.6,1,6.5-1.5A6.1,6.1,0,0,1,300,239.8Zm20.6-32.3-3.3-2a13.5,13.5,0,0,1-6-8.6,9.1,9.1,0,0,1-.3-2.3l.5-11.6a8.4,8.4,0,0,1,.3-1.8c-2.3-.3-4.1,1.3-4.2,4.3l-.5,11.6a21.2,21.2,0,0,0,.2,2.4c.8,3.3,3.1,6.9,6,8.5l3.4,2c3,1.7,5.6,1,6.5-1.6A7.3,7.3,0,0,1,320.6,207.5Zm-80.2-2.1-3.4-1.9a14.5,14.5,0,0,1-6.2-8.8,10.7,10.7,0,0,1-.3-2.5V180.7a6.6,6.6,0,0,1,.3-2.1c-2.5-.4-4.3,1.3-4.3,4.6v11.5a7.3,7.3,0,0,0,.4,2.5,14.5,14.5,0,0,0,6.2,8.8l3.4,2c2.9,1.6,5.4.9,6.2-1.7A6.1,6.1,0,0,1,240.4,205.4ZM229.6,155l-3.4-2a14.5,14.5,0,0,1-6.2-8.8,10.7,10.7,0,0,1-.3-2.5V130.2a6.6,6.6,0,0,1,.3-2.1c-2.5-.4-4.2,1.4-4.2,4.6v11.5a10.7,10.7,0,0,0,.3,2.5,14.5,14.5,0,0,0,6.2,8.8l3.4,2c2.9,1.6,5.4.9,6.2-1.7A7.9,7.9,0,0,1,229.6,155Zm61.2,35.3-3.3-2a13.6,13.6,0,0,1-6.1-8.6,11.3,11.3,0,0,1-.3-2.5l.2-11.5a6,6,0,0,1,.3-2c-2.4-.3-4.1,1.4-4.2,4.5l-.2,11.5a7.2,7.2,0,0,0,.2,2.5,14,14,0,0,0,6.1,8.6l3.4,2c3,1.7,5.5.9,6.4-1.6A7.6,7.6,0,0,1,290.8,190.3Zm-20.6,32.3-3.4-1.9a14.2,14.2,0,0,1-6.1-8.7,6.5,6.5,0,0,1-.2-2.4l.2-11.6a6.4,6.4,0,0,1,.3-2c-2.4-.3-4.2,1.4-4.2,4.5l-.3,11.6a9.9,9.9,0,0,0,.3,2.4,14.2,14.2,0,0,0,6.1,8.7l3.4,1.9c3,1.8,5.5,1,6.4-1.6A6.9,6.9,0,0,1,270.2,222.6ZM261,173.1l-3.4-2a14.7,14.7,0,0,1-6.2-8.7,12.2,12.2,0,0,1-.3-2.6V148.3a6.6,6.6,0,0,1,.3-2.1c-2.5-.4-4.2,1.4-4.2,4.6v11.5a12.2,12.2,0,0,0,.3,2.6,14.3,14.3,0,0,0,6.2,8.7l3.4,2c2.9,1.7,5.4.9,6.2-1.7A5.8,5.8,0,0,1,261,173.1Z"/>
              <path class="cls-6" d="M380,241.8l-3.3-1.9a13.2,13.2,0,0,1-5.8-8.4,8.3,8.3,0,0,1-.1-2.2l1-11.6a7.5,7.5,0,0,1,.4-1.6c-2.3-.1-4,1.3-4.3,4.1l-1,11.6a8.3,8.3,0,0,0,.1,2.2,13.2,13.2,0,0,0,5.8,8.4l3.3,1.9c3.1,1.8,5.9,1,6.9-1.6A5.8,5.8,0,0,1,380,241.8ZM329.7,257l-3.3-1.9a13.3,13.3,0,0,1-5.9-8.5,9.3,9.3,0,0,1-.2-2.3l.8-11.6a4.7,4.7,0,0,1,.3-1.7c-2.3-.2-4.1,1.3-4.2,4.2l-.8,11.6a9.3,9.3,0,0,0,.2,2.3,13.3,13.3,0,0,0,5.9,8.5l3.3,1.9c3,1.8,5.8,1,6.7-1.6A5.4,5.4,0,0,1,329.7,257Zm29.7,17.1-3.3-1.9a12.7,12.7,0,0,1-5.8-8.4,7.4,7.4,0,0,1-.1-2.1l1-11.7a8.3,8.3,0,0,1,.4-1.5,4,4,0,0,0-4.3,4l-1,11.7a5,5,0,0,0,.1,2.1,12.1,12.1,0,0,0,5.8,8.4l3.2,1.9c3.2,1.8,6,1.1,6.9-1.5A5.9,5.9,0,0,1,359.4,274.1Zm-9.1-49.5-3.3-1.9a13.6,13.6,0,0,1-5.9-8.5,17.9,17.9,0,0,1-.2-2.3l.8-11.6a4.7,4.7,0,0,1,.3-1.7c-2.3-.2-4,1.4-4.2,4.2l-.8,11.6a9,9,0,0,0,.2,2.3,13.3,13.3,0,0,0,5.9,8.5l3.3,1.9c3.1,1.8,5.8,1,6.7-1.5A7.3,7.3,0,0,1,350.3,224.6ZM300,239.8l-3.4-1.9a14.1,14.1,0,0,1-6-8.6,19.5,19.5,0,0,1-.2-2.3l.5-11.6a4.8,4.8,0,0,1,.3-1.8c-2.4-.3-4.1,1.3-4.2,4.3l-.5,11.6a9.3,9.3,0,0,0,.2,2.3,13.7,13.7,0,0,0,6,8.6l3.4,1.9c3,1.8,5.6,1,6.5-1.5A6.1,6.1,0,0,1,300,239.8Zm20.6-32.3-3.3-2a13.5,13.5,0,0,1-6-8.6,9.1,9.1,0,0,1-.3-2.3l.5-11.6a8.4,8.4,0,0,1,.3-1.8c-2.3-.3-4.1,1.3-4.2,4.3l-.5,11.6a21.2,21.2,0,0,0,.2,2.4c.8,3.3,3.1,6.9,6,8.5l3.4,2c3,1.7,5.6,1,6.5-1.6A7.3,7.3,0,0,1,320.6,207.5Zm-80.2-2.1-3.4-1.9a14.5,14.5,0,0,1-6.2-8.8,10.7,10.7,0,0,1-.3-2.5V180.7a6.6,6.6,0,0,1,.3-2.1c-2.5-.4-4.3,1.3-4.3,4.6v11.5a7.3,7.3,0,0,0,.4,2.5,14.5,14.5,0,0,0,6.2,8.8l3.4,2c2.9,1.6,5.4.9,6.2-1.7A6.1,6.1,0,0,1,240.4,205.4ZM229.6,155l-3.4-2a14.5,14.5,0,0,1-6.2-8.8,10.7,10.7,0,0,1-.3-2.5V130.2a6.6,6.6,0,0,1,.3-2.1c-2.5-.4-4.2,1.4-4.2,4.6v11.5a10.7,10.7,0,0,0,.3,2.5,14.5,14.5,0,0,0,6.2,8.8l3.4,2c2.9,1.6,5.4.9,6.2-1.7A7.9,7.9,0,0,1,229.6,155Zm61.2,35.3-3.3-2a13.6,13.6,0,0,1-6.1-8.6,11.3,11.3,0,0,1-.3-2.5l.2-11.5a6,6,0,0,1,.3-2c-2.4-.3-4.1,1.4-4.2,4.5l-.2,11.5a7.2,7.2,0,0,0,.2,2.5,14,14,0,0,0,6.1,8.6l3.4,2c3,1.7,5.5.9,6.4-1.6A7.6,7.6,0,0,1,290.8,190.3Zm-20.6,32.3-3.4-1.9a14.2,14.2,0,0,1-6.1-8.7,6.5,6.5,0,0,1-.2-2.4l.2-11.6a6.4,6.4,0,0,1,.3-2c-2.4-.3-4.2,1.4-4.2,4.5l-.3,11.6a9.9,9.9,0,0,0,.3,2.4,14.2,14.2,0,0,0,6.1,8.7l3.4,1.9c3,1.8,5.5,1,6.4-1.6A6.9,6.9,0,0,1,270.2,222.6ZM261,173.1l-3.4-2a14.7,14.7,0,0,1-6.2-8.7,12.2,12.2,0,0,1-.3-2.6V148.3a6.6,6.6,0,0,1,.3-2.1c-2.5-.4-4.2,1.4-4.2,4.6v11.5a12.2,12.2,0,0,0,.3,2.6,14.3,14.3,0,0,0,6.2,8.7l3.4,2c2.9,1.7,5.4.9,6.2-1.7A5.8,5.8,0,0,1,261,173.1Z"/>
            </g>
          </g>
          <g>
            <path class="cls-3" d="M75.7,289.4,255.6,393.3l129.1-74.5L211.4,218.7a13.7,13.7,0,0,0-13.3,0Z"/>
            <path class="cls-8" d="M75.7,289.4,255.6,393.3l129.1-74.5L211.4,218.7a13.7,13.7,0,0,0-13.3,0Z"/>
          </g>
          <g>
            <polygon class="cls-9" points="400 210.5 204.8 97.8 204.8 75.2 400 187.9 400 210.5"/>
            <g>
              <polygon class="cls-9" points="62.8 157.2 62.8 179.8 204.8 97.8 204.8 75.2 62.8 157.2"/>
              <polygon class="cls-6" points="62.8 157.2 62.8 179.8 204.8 97.8 204.8 75.2 62.8 157.2"/>
            </g>
          </g>
          <g>
            <path class="cls-9" d="M409.4,185.3H395.6L209.1,77.7a8.7,8.7,0,0,0-8.8.1L64.8,156H50.9c0-1.9,1.5-3.2,2.8-3.9L197.9,68.8a14.6,14.6,0,0,1,13.5,0L406.6,181.5C407.3,181.9,409.4,183.5,409.4,185.3Z"/>
            <path class="cls-10" d="M409.4,185.3H395.6L209.1,77.7a8.7,8.7,0,0,0-8.8.1L64.8,156H50.9c0-1.9,1.5-3.2,2.8-3.9L197.9,68.8a14.6,14.6,0,0,1,13.5,0L406.6,181.5C407.3,181.9,409.4,183.5,409.4,185.3Z"/>
          </g>
        </g>
        <g id="Corpo_Frente" data-name="Corpo Frente">
          <g>
            <path class="cls-3" d="M108.4,296.6l-3.3-1.9a16.4,16.4,0,0,1-7.2-11.3l-1.2-13a4.8,4.8,0,0,1,.1-2.1l1.5.7,3.6,2.1a15.9,15.9,0,0,1,7.1,11.3l1.1,12.8a13.4,13.4,0,0,1-.1,2.1Zm29.7,17.1-3.3-1.9a15.9,15.9,0,0,1-7.1-11.3l-.9-12.7a6.5,6.5,0,0,1,.2-2,4.3,4.3,0,0,1,1.6.7l3.6,2.1c3.6,2,6.7,7.1,7,11.2l.7,12.5a4.7,4.7,0,0,1-.2,2.1A7.1,7.1,0,0,1,138.1,313.7Zm29.7,17.2-3.3-1.9a15.6,15.6,0,0,1-6.9-11.3l-.6-12.3a4.7,4.7,0,0,1,.2-2.1,7.7,7.7,0,0,1,1.7.7l3.6,2.1c3.6,2.1,6.7,7.1,6.8,11.3l.5,12.1a6.8,6.8,0,0,1-.2,2.1A6.7,6.7,0,0,1,167.8,330.9Zm29.8,17.2-3.3-1.9c-3.6-2.1-6.7-7.2-6.8-11.3l-.3-12a6.8,6.8,0,0,1,.2-2.1,6.7,6.7,0,0,1,1.8.7l3.7,2.1c3.6,2.1,6.6,7.2,6.6,11.3l.3,11.8a7.3,7.3,0,0,1-.3,2.2A9.7,9.7,0,0,1,197.6,348.1Zm29.9,17.3-3.4-2a14.5,14.5,0,0,1-6.6-11.3V340.5a6.9,6.9,0,0,1,.3-2.2,6,6,0,0,1,1.9.8l3.6,2.1a14.2,14.2,0,0,1,6.6,11.3V364a4.6,4.6,0,0,1-.4,2.1A5.6,5.6,0,0,1,227.5,365.4ZM94.9,240.8l-1.6-.7-3.2-1.9c-3.6-2.1-6.9-7.1-7.2-11.3l-1.3-13a13.4,13.4,0,0,1,.1-2.1l1.5.7,3.6,2.1A16.4,16.4,0,0,1,94,225.9l1,12.8A7,7,0,0,1,94.9,240.8Zm29.8,17.1a7.7,7.7,0,0,1-1.7-.7l-3.3-1.9a16,16,0,0,1-7-11.3l-.9-12.7a6.4,6.4,0,0,1,.1-2,3.7,3.7,0,0,1,1.6.7l3.6,2.1a15.3,15.3,0,0,1,7,11.2l.8,12.5A6.8,6.8,0,0,1,124.7,257.9Zm29.9,17.2a6.7,6.7,0,0,1-1.8-.7l-3.3-1.9a15.3,15.3,0,0,1-6.9-11.3l-.7-12.3a12.5,12.5,0,0,1,.2-2.1,6.7,6.7,0,0,1,1.8.7l3.6,2.1a15.3,15.3,0,0,1,6.8,11.3l.5,12.1A12.5,12.5,0,0,1,154.6,275.1Zm29.9,17.3a7.7,7.7,0,0,1-1.9-.8l-3.4-1.9a15,15,0,0,1-6.7-11.3l-.4-12a6.6,6.6,0,0,1,.3-2.1,4.5,4.5,0,0,1,1.8.7l3.6,2.1a14.9,14.9,0,0,1,6.7,11.3l.2,11.8A15,15,0,0,1,184.5,292.4Zm30.2,15.1a6.6,6.6,0,0,1-.3,2.1,7.3,7.3,0,0,1-1.9-.7l-3.4-2a14.5,14.5,0,0,1-6.6-11.3V283.9a4.7,4.7,0,0,1,.3-2.1,6,6,0,0,1,1.9.8l3.6,2.1a14.4,14.4,0,0,1,6.5,11.3Zm31.4,18.1a7.3,7.3,0,0,1-.3,2.2,7.7,7.7,0,0,1-1.9-.8l-3.4-2a14.3,14.3,0,0,1-6.6-11.3V302.1a5.1,5.1,0,0,1,.3-2.2,9.7,9.7,0,0,1,1.9.8l3.6,2.1a14.4,14.4,0,0,1,6.5,11.3Zm9.5-56.4L59.6,156,70.9,279.2c.8,8.5,7.4,19,14.8,23.3l156.4,90.3c6.7,3.9,17.3,4.3,24.7,1.1l.6-.2.3-.2,1.4-.7,105.5-60.9c7.4-4.3,14-14.8,14.8-23.3l11.3-123.3Zm108,.6,1-12.9c.4-4.1,3.6-9.2,7.2-11.2l3.6-2.1,1.5-.7a12.7,12.7,0,0,1,.1,2L375.8,258a16.7,16.7,0,0,1-7.3,11.3l-3.2,1.9-1.6.7A7,7,0,0,1,363.6,269.8Zm-29.1,4.6c.2-4.1,3.4-9.2,7-11.3l3.6-2.1,1.6-.7a7,7,0,0,1,.1,2.1l-.9,12.7a16,16,0,0,1-7,11.3l-3.3,1.9a7.7,7.7,0,0,1-1.7.7,12.5,12.5,0,0,1-.2-2.1ZM304.3,292a15.3,15.3,0,0,1,6.8-11.3l3.7-2.1a6.5,6.5,0,0,1,1.7-.8,13.6,13.6,0,0,1,.2,2.1l-.6,12.4c-.3,4.1-3.3,9.2-6.9,11.2l-3.4,2a7.7,7.7,0,0,1-1.7.7,6.6,6.6,0,0,1-.3-2.1Zm-30.4,29.3.2-11.8a14.9,14.9,0,0,1,6.7-11.3l3.6-2.1a7.1,7.1,0,0,1,1.8-.8,7.8,7.8,0,0,1,.3,2.2l-.4,11.9a14.9,14.9,0,0,1-6.7,11.3l-3.4,2a5.1,5.1,0,0,1-1.8.7A6.6,6.6,0,0,1,273.9,321.3Zm14.9,39.3.5-12.1c.1-4.2,3.2-9.2,6.8-11.3l3.6-2.1a8.5,8.5,0,0,1,1.7-.8,4.9,4.9,0,0,1,.2,2.1l-.6,12.4a15.2,15.2,0,0,1-6.9,11.2l-3.3,2a6.7,6.7,0,0,1-1.8.7A6.8,6.8,0,0,1,288.8,360.6Zm29.9-17.2.8-12.5a15.6,15.6,0,0,1,6.9-11.3l3.6-2a4.1,4.1,0,0,1,1.7-.7,11.5,11.5,0,0,1,.1,2l-.9,12.7a16,16,0,0,1-7,11.3l-3.4,1.9a5.6,5.6,0,0,1-1.6.7A6.8,6.8,0,0,1,318.7,343.4Zm29.9-17.1,1-12.9a15.7,15.7,0,0,1,7.1-11.2l3.6-2.1,1.5-.7a4.4,4.4,0,0,1,.1,2l-1.2,13.1a16.6,16.6,0,0,1-7.2,11.3l-3.3,1.9-1.5.7A4.8,4.8,0,0,1,348.6,326.3Z"/>
            <path class="cls-11" d="M108.4,296.6l-3.3-1.9a16.4,16.4,0,0,1-7.2-11.3l-1.2-13a4.8,4.8,0,0,1,.1-2.1l1.5.7,3.6,2.1a15.9,15.9,0,0,1,7.1,11.3l1.1,12.8a13.4,13.4,0,0,1-.1,2.1Zm29.7,17.1-3.3-1.9a15.9,15.9,0,0,1-7.1-11.3l-.9-12.7a6.5,6.5,0,0,1,.2-2,4.3,4.3,0,0,1,1.6.7l3.6,2.1c3.6,2,6.7,7.1,7,11.2l.7,12.5a4.7,4.7,0,0,1-.2,2.1A7.1,7.1,0,0,1,138.1,313.7Zm29.7,17.2-3.3-1.9a15.6,15.6,0,0,1-6.9-11.3l-.6-12.3a4.7,4.7,0,0,1,.2-2.1,7.7,7.7,0,0,1,1.7.7l3.6,2.1c3.6,2.1,6.7,7.1,6.8,11.3l.5,12.1a6.8,6.8,0,0,1-.2,2.1A6.7,6.7,0,0,1,167.8,330.9Zm29.8,17.2-3.3-1.9c-3.6-2.1-6.7-7.2-6.8-11.3l-.3-12a6.8,6.8,0,0,1,.2-2.1,6.7,6.7,0,0,1,1.8.7l3.7,2.1c3.6,2.1,6.6,7.2,6.6,11.3l.3,11.8a7.3,7.3,0,0,1-.3,2.2A9.7,9.7,0,0,1,197.6,348.1Zm29.9,17.3-3.4-2a14.5,14.5,0,0,1-6.6-11.3V340.5a6.9,6.9,0,0,1,.3-2.2,6,6,0,0,1,1.9.8l3.6,2.1a14.2,14.2,0,0,1,6.6,11.3V364a4.6,4.6,0,0,1-.4,2.1A5.6,5.6,0,0,1,227.5,365.4ZM94.9,240.8l-1.6-.7-3.2-1.9c-3.6-2.1-6.9-7.1-7.2-11.3l-1.3-13a13.4,13.4,0,0,1,.1-2.1l1.5.7,3.6,2.1A16.4,16.4,0,0,1,94,225.9l1,12.8A7,7,0,0,1,94.9,240.8Zm29.8,17.1a7.7,7.7,0,0,1-1.7-.7l-3.3-1.9a16,16,0,0,1-7-11.3l-.9-12.7a6.4,6.4,0,0,1,.1-2,3.7,3.7,0,0,1,1.6.7l3.6,2.1a15.3,15.3,0,0,1,7,11.2l.8,12.5A6.8,6.8,0,0,1,124.7,257.9Zm29.9,17.2a6.7,6.7,0,0,1-1.8-.7l-3.3-1.9a15.3,15.3,0,0,1-6.9-11.3l-.7-12.3a12.5,12.5,0,0,1,.2-2.1,6.7,6.7,0,0,1,1.8.7l3.6,2.1a15.3,15.3,0,0,1,6.8,11.3l.5,12.1A12.5,12.5,0,0,1,154.6,275.1Zm29.9,17.3a7.7,7.7,0,0,1-1.9-.8l-3.4-1.9a15,15,0,0,1-6.7-11.3l-.4-12a6.6,6.6,0,0,1,.3-2.1,4.5,4.5,0,0,1,1.8.7l3.6,2.1a14.9,14.9,0,0,1,6.7,11.3l.2,11.8A15,15,0,0,1,184.5,292.4Zm30.2,15.1a6.6,6.6,0,0,1-.3,2.1,7.3,7.3,0,0,1-1.9-.7l-3.4-2a14.5,14.5,0,0,1-6.6-11.3V283.9a4.7,4.7,0,0,1,.3-2.1,6,6,0,0,1,1.9.8l3.6,2.1a14.4,14.4,0,0,1,6.5,11.3Zm31.4,18.1a7.3,7.3,0,0,1-.3,2.2,7.7,7.7,0,0,1-1.9-.8l-3.4-2a14.3,14.3,0,0,1-6.6-11.3V302.1a5.1,5.1,0,0,1,.3-2.2,9.7,9.7,0,0,1,1.9.8l3.6,2.1a14.4,14.4,0,0,1,6.5,11.3Zm9.5-56.4L59.6,156,70.9,279.2c.8,8.5,7.4,19,14.8,23.3l156.4,90.3c6.7,3.9,17.3,4.3,24.7,1.1l.6-.2.3-.2,1.4-.7,105.5-60.9c7.4-4.3,14-14.8,14.8-23.3l11.3-123.3Zm108,.6,1-12.9c.4-4.1,3.6-9.2,7.2-11.2l3.6-2.1,1.5-.7a12.7,12.7,0,0,1,.1,2L375.8,258a16.7,16.7,0,0,1-7.3,11.3l-3.2,1.9-1.6.7A7,7,0,0,1,363.6,269.8Zm-29.1,4.6c.2-4.1,3.4-9.2,7-11.3l3.6-2.1,1.6-.7a7,7,0,0,1,.1,2.1l-.9,12.7a16,16,0,0,1-7,11.3l-3.3,1.9a7.7,7.7,0,0,1-1.7.7,12.5,12.5,0,0,1-.2-2.1ZM304.3,292a15.3,15.3,0,0,1,6.8-11.3l3.7-2.1a6.5,6.5,0,0,1,1.7-.8,13.6,13.6,0,0,1,.2,2.1l-.6,12.4c-.3,4.1-3.3,9.2-6.9,11.2l-3.4,2a7.7,7.7,0,0,1-1.7.7,6.6,6.6,0,0,1-.3-2.1Zm-30.4,29.3.2-11.8a14.9,14.9,0,0,1,6.7-11.3l3.6-2.1a7.1,7.1,0,0,1,1.8-.8,7.8,7.8,0,0,1,.3,2.2l-.4,11.9a14.9,14.9,0,0,1-6.7,11.3l-3.4,2a5.1,5.1,0,0,1-1.8.7A6.6,6.6,0,0,1,273.9,321.3Zm14.9,39.3.5-12.1c.1-4.2,3.2-9.2,6.8-11.3l3.6-2.1a8.5,8.5,0,0,1,1.7-.8,4.9,4.9,0,0,1,.2,2.1l-.6,12.4a15.2,15.2,0,0,1-6.9,11.2l-3.3,2a6.7,6.7,0,0,1-1.8.7A6.8,6.8,0,0,1,288.8,360.6Zm29.9-17.2.8-12.5a15.6,15.6,0,0,1,6.9-11.3l3.6-2a4.1,4.1,0,0,1,1.7-.7,11.5,11.5,0,0,1,.1,2l-.9,12.7a16,16,0,0,1-7,11.3l-3.4,1.9a5.6,5.6,0,0,1-1.6.7A6.8,6.8,0,0,1,318.7,343.4Zm29.9-17.1,1-12.9a15.7,15.7,0,0,1,7.1-11.2l3.6-2.1,1.5-.7a4.4,4.4,0,0,1,.1,2l-1.2,13.1a16.6,16.6,0,0,1-7.2,11.3l-3.3,1.9-1.5.7A4.8,4.8,0,0,1,348.6,326.3Z"/>
            <path class="cls-10" d="M255.6,269.2V385c0,7.7,4.9,11.3,11.2,8.9l.6-.2.3-.2,1.4-.7,105.5-60.9c7.4-4.3,14-14.8,14.8-23.3l11.3-123.3Zm108,.6,1-12.9c.4-4.1,3.6-9.2,7.2-11.2l3.6-2.1,1.5-.7a12.7,12.7,0,0,1,.1,2L375.8,258a16.7,16.7,0,0,1-7.3,11.3l-3.2,1.9-1.6.7A7,7,0,0,1,363.6,269.8Zm-29.1,4.6c.2-4.1,3.4-9.2,7-11.3l3.6-2.1,1.6-.7a7,7,0,0,1,.1,2.1l-.9,12.7a16,16,0,0,1-7,11.3l-3.3,1.9a7.7,7.7,0,0,1-1.7.7,12.5,12.5,0,0,1-.2-2.1ZM304.3,292a15.3,15.3,0,0,1,6.8-11.3l3.7-2.1a6.5,6.5,0,0,1,1.7-.8,13.6,13.6,0,0,1,.2,2.1l-.6,12.4c-.3,4.1-3.3,9.2-6.9,11.2l-3.4,2a7.7,7.7,0,0,1-1.7.7,6.6,6.6,0,0,1-.3-2.1Zm-30.4,29.3.2-11.8a14.9,14.9,0,0,1,6.7-11.3l3.6-2.1a7.1,7.1,0,0,1,1.8-.8,7.8,7.8,0,0,1,.3,2.2l-.4,11.9a14.9,14.9,0,0,1-6.7,11.3l-3.4,2a5.1,5.1,0,0,1-1.8.7A6.6,6.6,0,0,1,273.9,321.3Zm14.9,39.3.5-12.1c.1-4.2,3.2-9.2,6.8-11.3l3.6-2.1a8.5,8.5,0,0,1,1.7-.8,4.9,4.9,0,0,1,.2,2.1l-.6,12.4a15.2,15.2,0,0,1-6.9,11.2l-3.3,2a6.7,6.7,0,0,1-1.8.7A6.8,6.8,0,0,1,288.8,360.6Zm29.9-17.2.8-12.5a15.6,15.6,0,0,1,6.9-11.3l3.6-2a4.1,4.1,0,0,1,1.7-.7,11.5,11.5,0,0,1,.1,2l-.9,12.7a16,16,0,0,1-7,11.3l-3.4,1.9a5.6,5.6,0,0,1-1.6.7A6.8,6.8,0,0,1,318.7,343.4Zm29.9-17.1,1-12.9a15.7,15.7,0,0,1,7.1-11.2l3.6-2.1,1.5-.7a4.4,4.4,0,0,1,.1,2l-1.2,13.1a16.6,16.6,0,0,1-7.2,11.3l-3.3,1.9-1.5.7A4.8,4.8,0,0,1,348.6,326.3Z"/>
            <g>
              <path class="cls-5" d="M366.2,303.8,365,316.9a16.4,16.4,0,0,1-7.3,11.3l-3.2,1.9c-3,1.6-5.3.8-5.8-1.7l1.5-.7,3.3-1.9a16.6,16.6,0,0,0,7.2-11.3l1.2-13.1a4.4,4.4,0,0,0-.1-2C364.6,298.6,366.5,300.3,366.2,303.8Z"/>
              <path class="cls-5" d="M305.9,338.8l-.6,12.3c-.2,4.2-3.3,9.3-6.9,11.3l-3.4,2c-2.9,1.6-5.3.9-6-1.7a6.7,6.7,0,0,0,1.8-.7l3.3-2a15.2,15.2,0,0,0,6.9-11.2l.6-12.4a4.9,4.9,0,0,0-.2-2.1C304.2,333.6,306,335.4,305.9,338.8Z"/>
              <path class="cls-5" d="M336,321.3l-.9,12.7c-.2,4.1-3.4,9.2-7,11.3l-3.3,1.9c-2.9,1.7-5.3.9-5.9-1.7a5.6,5.6,0,0,0,1.6-.7l3.4-1.9a16,16,0,0,0,7-11.3l.9-12.7a11.5,11.5,0,0,0-.1-2C334.4,316.1,336.3,317.8,336,321.3Z"/>
              <path class="cls-5" d="M290.7,299.9l-.3,11.9a15.3,15.3,0,0,1-6.8,11.3l-3.3,2c-2.9,1.6-5.4.9-6.1-1.7a5.1,5.1,0,0,0,1.8-.7l3.4-2a14.9,14.9,0,0,0,6.7-11.3l.4-11.9a7.8,7.8,0,0,0-.3-2.2C288.9,294.7,290.8,296.4,290.7,299.9Z"/>
              <path class="cls-5" d="M351.1,264.8l-.9,12.7a15.7,15.7,0,0,1-7.1,11.2l-3.3,2c-2.9,1.7-5.2.9-5.9-1.7a7.7,7.7,0,0,0,1.7-.7l3.3-1.9a16,16,0,0,0,7-11.3l.9-12.7a7,7,0,0,0-.1-2.1C349.4,259.5,351.3,261.3,351.1,264.8Z"/>
              <path class="cls-5" d="M320.9,282.3l-.6,12.3c-.2,4.2-3.3,9.3-6.9,11.3l-3.3,2c-2.9,1.6-5.3.9-6-1.7a7.7,7.7,0,0,0,1.7-.7l3.4-2c3.6-2,6.6-7.1,6.9-11.2l.6-12.4a13.6,13.6,0,0,0-.2-2.1C319.2,277.1,321.1,278.9,320.9,282.3Z"/>
              <path class="cls-5" d="M381.2,247.3,380,260.4a16.6,16.6,0,0,1-7.2,11.3l-3.3,1.9c-2.9,1.6-5.2.8-5.8-1.7l1.6-.7,3.2-1.9a16.7,16.7,0,0,0,7.3-11.3l1.2-13.1a12.7,12.7,0,0,0-.1-2C379.7,242.1,381.5,243.8,381.2,247.3Z"/>
              <path class="cls-6" d="M331.7,316.9a11.5,11.5,0,0,1,.1,2l-.9,12.7a16,16,0,0,1-7,11.3l-3.4,1.9a5.6,5.6,0,0,1-1.6.7c.6,2.6,3,3.4,5.9,1.7l3.3-1.9c3.6-2.1,6.8-7.2,7-11.3l.9-12.7C336.3,317.8,334.4,316.1,331.7,316.9Zm30.1-17.5a4.4,4.4,0,0,1,.1,2l-1.2,13.1a16.6,16.6,0,0,1-7.2,11.3l-3.3,1.9-1.5.7c.5,2.5,2.8,3.3,5.8,1.7l3.2-1.9a16.4,16.4,0,0,0,7.3-11.3l1.2-13.1C366.5,300.3,364.6,298.6,361.8,299.4Zm-60.4,34.9a4.9,4.9,0,0,1,.2,2.1l-.6,12.4a15.2,15.2,0,0,1-6.9,11.2l-3.3,2a6.7,6.7,0,0,1-1.8.7c.7,2.6,3.1,3.3,6,1.7l3.4-2c3.6-2,6.7-7.1,6.9-11.3l.6-12.3C306,335.4,304.2,333.6,301.4,334.3Zm19.5-52c.2-3.4-1.7-5.2-4.4-4.5a13.6,13.6,0,0,1,.2,2.1l-.6,12.4c-.3,4.1-3.3,9.2-6.9,11.2l-3.4,2a7.7,7.7,0,0,1-1.7.7c.7,2.6,3.1,3.3,6,1.7l3.3-2c3.6-2,6.7-7.1,6.9-11.3Zm-30.2,17.6c.1-3.5-1.8-5.2-4.5-4.6a7.8,7.8,0,0,1,.3,2.2l-.4,11.9a14.9,14.9,0,0,1-6.7,11.3l-3.4,2a5.1,5.1,0,0,1-1.8.7c.7,2.6,3.2,3.3,6.1,1.7l3.3-2a15.3,15.3,0,0,0,6.8-11.3Zm86.2-57a12.7,12.7,0,0,1,.1,2L375.8,258a16.7,16.7,0,0,1-7.3,11.3l-3.2,1.9-1.6.7c.6,2.5,2.9,3.3,5.8,1.7l3.3-1.9a16.6,16.6,0,0,0,7.2-11.3l1.2-13.1C381.5,243.8,379.7,242.1,376.9,242.9Zm-25.8,21.9c.2-3.5-1.7-5.3-4.4-4.5a7,7,0,0,1,.1,2.1l-.9,12.7a16,16,0,0,1-7,11.3l-3.3,1.9a7.7,7.7,0,0,1-1.7.7c.7,2.6,3,3.4,5.9,1.7l3.3-2a15.7,15.7,0,0,0,7.1-11.2Z"/>
            </g>
            <g>
              <path class="cls-5" d="M105.1,294.7a16.4,16.4,0,0,1-7.2-11.3l-1.2-13a4.8,4.8,0,0,1,.1-2.1c-2.8-.8-4.7.9-4.4,4.4l1.2,13.1a16.5,16.5,0,0,0,7.3,11.3l3.2,1.9c3,1.7,5.3.9,5.9-1.7l-1.6-.7ZM164.5,329a15.6,15.6,0,0,1-6.9-11.3l-.6-12.3a4.7,4.7,0,0,1,.2-2.1c-2.7-.8-4.6,1-4.5,4.5l.7,12.3a15.4,15.4,0,0,0,6.8,11.3l3.4,1.9c2.9,1.7,5.3.9,6-1.7a6.7,6.7,0,0,1-1.8-.7Zm-29.7-17.2a15.9,15.9,0,0,1-7.1-11.3l-.9-12.7a6.5,6.5,0,0,1,.2-2c-2.8-.8-4.7.9-4.4,4.4l.9,12.7a16,16,0,0,0,7,11.3l3.3,1.9c3,1.7,5.3.9,5.9-1.7a7.1,7.1,0,0,1-1.6-.7Zm92.7,53.6-3.4-2a14.5,14.5,0,0,1-6.6-11.3V340.5a6.9,6.9,0,0,1,.3-2.2c-2.7-.6-4.6,1.2-4.5,4.5v11.7a14.5,14.5,0,0,0,6.6,11.3l3.3,2c2.9,1.6,5.4.9,6.2-1.7A5.6,5.6,0,0,1,227.5,365.4Zm-33.2-19.2c-3.6-2.1-6.7-7.2-6.8-11.3l-.3-12a6.8,6.8,0,0,1,.2-2.1c-2.7-.7-4.6,1.1-4.5,4.5l.4,12a14.7,14.7,0,0,0,6.7,11.2l3.4,2c2.9,1.7,5.3.9,6.1-1.6a9.7,9.7,0,0,1-1.9-.8Z"/>
              <path class="cls-5" d="M90.1,238.2c-3.6-2.1-6.9-7.1-7.2-11.3l-1.3-13a13.4,13.4,0,0,1,.1-2.1c-2.8-.8-4.6.9-4.3,4.4l1.2,13.1a16.4,16.4,0,0,0,7.2,11.3l3.3,1.9c2.9,1.7,5.2.9,5.8-1.7l-1.6-.7Zm59.4,34.3a15.3,15.3,0,0,1-6.9-11.3l-.7-12.3a12.5,12.5,0,0,1,.2-2.1c-2.7-.8-4.6,1-4.4,4.5l.6,12.3a15.6,15.6,0,0,0,6.9,11.3l3.3,1.9c3,1.7,5.3.9,6.1-1.7a6.7,6.7,0,0,1-1.8-.7Zm-29.8-17.2a16,16,0,0,1-7-11.3l-.9-12.7a6.4,6.4,0,0,1,.1-2c-2.7-.8-4.6.9-4.4,4.4l.9,12.7a16.1,16.1,0,0,0,7.1,11.3l3.3,1.9c2.9,1.7,5.3.9,5.9-1.7a7.7,7.7,0,0,1-1.7-.7Zm59.5,34.4a15,15,0,0,1-6.7-11.3l-.4-12a6.6,6.6,0,0,1,.3-2.1c-2.7-.7-4.6,1-4.5,4.5l.3,11.9c.2,4.2,3.2,9.3,6.8,11.3l3.3,2c2.9,1.7,5.4.9,6.2-1.6a7.7,7.7,0,0,1-1.9-.8Zm29.9,17.2a14.5,14.5,0,0,1-6.6-11.3V283.9a4.7,4.7,0,0,1,.3-2.1c-2.7-.6-4.6,1.1-4.6,4.5V298a14.9,14.9,0,0,0,6.6,11.3l3.4,1.9c2.9,1.7,5.4,1,6.2-1.6a7.3,7.3,0,0,1-1.9-.7ZM243.9,327l-3.4-2a14.3,14.3,0,0,1-6.6-11.3V302.1a5.1,5.1,0,0,1,.3-2.2c-2.7-.6-4.6,1.2-4.6,4.6v11.6a14.8,14.8,0,0,0,6.6,11.3l3.4,2c2.9,1.7,5.4.9,6.2-1.6A7.7,7.7,0,0,1,243.9,327Z"/>
              <path class="cls-6" d="M194.3,346.2c-3.6-2.1-6.7-7.2-6.8-11.3l-.3-12a6.8,6.8,0,0,1,.2-2.1c-2.7-.7-4.6,1.1-4.5,4.5l.4,12a14.7,14.7,0,0,0,6.7,11.2l3.4,2c2.9,1.7,5.3.9,6.1-1.6a9.7,9.7,0,0,1-1.9-.8ZM164.5,329a15.6,15.6,0,0,1-6.9-11.3l-.6-12.3a4.7,4.7,0,0,1,.2-2.1c-2.7-.8-4.6,1-4.5,4.5l.7,12.3a15.4,15.4,0,0,0,6.8,11.3l3.4,1.9c2.9,1.7,5.3.9,6-1.7a6.7,6.7,0,0,1-1.8-.7Zm-59.4-34.3a16.4,16.4,0,0,1-7.2-11.3l-1.2-13a4.8,4.8,0,0,1,.1-2.1c-2.8-.8-4.7.9-4.4,4.4l1.2,13.1a16.5,16.5,0,0,0,7.3,11.3l3.2,1.9c3,1.7,5.3.9,5.9-1.7l-1.6-.7Zm119,68.7a14.5,14.5,0,0,1-6.6-11.3V340.5a6.9,6.9,0,0,1,.3-2.2c-2.7-.6-4.6,1.2-4.5,4.5v11.7a14.5,14.5,0,0,0,6.6,11.3l3.3,2c2.9,1.6,5.4.9,6.2-1.7a5.6,5.6,0,0,1-1.9-.7Zm-89.3-51.6a15.9,15.9,0,0,1-7.1-11.3l-.9-12.7a6.5,6.5,0,0,1,.2-2c-2.8-.8-4.7.9-4.4,4.4l.9,12.7a16,16,0,0,0,7,11.3l3.3,1.9c3,1.7,5.3.9,5.9-1.7a7.1,7.1,0,0,1-1.6-.7Zm-39.9-71-1.6-.7-3.2-1.9c-3.6-2.1-6.9-7.1-7.2-11.3l-1.3-13a13.4,13.4,0,0,1,.1-2.1c-2.8-.8-4.6.9-4.3,4.4l1.2,13.1a16.4,16.4,0,0,0,7.2,11.3l3.3,1.9C92,244.2,94.3,243.4,94.9,240.8Zm29.8,17.1a7.7,7.7,0,0,1-1.7-.7l-3.3-1.9a16,16,0,0,1-7-11.3l-.9-12.7a6.4,6.4,0,0,1,.1-2c-2.7-.8-4.6.9-4.4,4.4l.9,12.7a16.1,16.1,0,0,0,7.1,11.3l3.3,1.9C121.7,261.3,124.1,260.5,124.7,257.9Zm59.8,34.5a7.7,7.7,0,0,1-1.9-.8l-3.4-1.9a15,15,0,0,1-6.7-11.3l-.4-12a6.6,6.6,0,0,1,.3-2.1c-2.7-.7-4.6,1-4.5,4.5l.3,11.9c.2,4.2,3.2,9.3,6.8,11.3l3.3,2C181.2,295.7,183.7,294.9,184.5,292.4Zm-29.9-17.3a6.7,6.7,0,0,1-1.8-.7l-3.3-1.9a15.3,15.3,0,0,1-6.9-11.3l-.7-12.3a12.5,12.5,0,0,1,.2-2.1c-2.7-.8-4.6,1-4.4,4.5l.6,12.3a15.6,15.6,0,0,0,6.9,11.3l3.3,1.9C151.5,278.5,153.8,277.7,154.6,275.1Zm59.8,34.5a7.3,7.3,0,0,1-1.9-.7l-3.4-2a14.5,14.5,0,0,1-6.6-11.3V283.9a4.7,4.7,0,0,1,.3-2.1c-2.7-.6-4.6,1.1-4.6,4.5V298a14.9,14.9,0,0,0,6.6,11.3l3.4,1.9C211.1,312.9,213.6,312.2,214.4,309.6ZM243.9,327l-3.4-2a14.3,14.3,0,0,1-6.6-11.3V302.1a5.1,5.1,0,0,1,.3-2.2c-2.7-.6-4.6,1.2-4.6,4.6v11.6a14.8,14.8,0,0,0,6.6,11.3l3.4,2c2.9,1.7,5.4.9,6.2-1.6A7.7,7.7,0,0,1,243.9,327Z"/>
            </g>
          </g>
          <g>
            <path class="cls-9" d="M409.4,185.3V208c0,1.4-.9,2.8-2.8,3.8L262.4,295.2a13.7,13.7,0,0,1-6.8,1.6V274.2a14.8,14.8,0,0,0,6.8-1.6l144.2-83.4c2-1.1,2.9-2.6,2.8-4.1Z"/>
            <path class="cls-6" d="M409.4,185.3V208c0,1.4-.9,2.8-2.8,3.8L262.4,295.2a13.7,13.7,0,0,1-6.8,1.6V274.2a14.8,14.8,0,0,0,6.8-1.6l144.2-83.4c2-1.1,2.9-2.6,2.8-4.1Z"/>
            <path class="cls-9" d="M255.6,274.2v22.6a13.3,13.3,0,0,1-6.7-1.6L53.7,182.5c-1.9-1.1-2.8-2.5-2.8-3.9V155.7c-.1,1.5.8,3,2.8,4.2L248.9,272.6A14.4,14.4,0,0,0,255.6,274.2Z"/>
            <path class="cls-9" d="M409.4,185.3a4.6,4.6,0,0,1-2.8,3.9L262.4,272.6a15.3,15.3,0,0,1-13.5,0L53.7,159.9c-1.9-1.1-2.8-2.5-2.8-3.9H64.8L251.2,263.6a8.9,8.9,0,0,0,8.9,0l135.5-78.3Z"/>
            <path class="cls-10" d="M409.4,185.3a4.6,4.6,0,0,1-2.8,3.9L262.4,272.6a15.3,15.3,0,0,1-13.5,0L53.7,159.9c-1.9-1.1-2.8-2.5-2.8-3.9H64.8L251.2,263.6a8.9,8.9,0,0,0,8.9,0l135.5-78.3Z"/>
          </g>
        </g>
        <g id="alça">
          <path class="cls-12" d="M324.2,18.3V133.8l-5-2.9V19.1a1.3,1.3,0,0,0-1.9-1.1L299.9,28.1,173.4,101c-3.7,2.1-6.7,8.4-6.7,14.1V245.7a3.2,3.2,0,0,1-1.6,2.8l-3.4,2-1.2.7,1.2-2.9v-136c0-5.7,3-12,6.7-14.1L317.5,11.9a4.4,4.4,0,0,1,2-.7h.8c.3.1.6.1.8.3h.1C323,12.3,324.2,14.8,324.2,18.3Z"/>
          <path class="cls-9" d="M317.5,11.9,168.4,98.2c-3.7,2.1-6.7,8.4-6.7,14.1V248.4c0,2.7-1.9,3.9-4.3,2.5l-10.6-6.2a9.3,9.3,0,0,1-4.3-7.4V101.1c0-5.7,2.9-12,6.6-14.1L298.6.5a3.3,3.3,0,0,1,3.6,0l17.5,10.1,1.8,1A3.9,3.9,0,0,0,317.5,11.9Z"/>
          <path class="cls-13" d="M317.3,18,299.9,28.1v91.7l19.3,11.1V19.1A1.3,1.3,0,0,0,317.3,18Z"/>
        </g>
        <g id="junta_alça" data-name="junta alça">
          <path class="cls-13" d="M146.8,227.3a3.8,3.8,0,0,0-1.6,3.5,11.6,11.6,0,0,0,5.4,9.2c1.5.9,2.8,1,3.8.4l3.4-2c.9-.5,1.5-1.7,1.5-3.4a11.7,11.7,0,0,0-5.3-9.3,4.1,4.1,0,0,0-3.8-.4Z"/>
          <path class="cls-14" d="M150.6,240c1.5.9,2.8,1,3.8.4s1.5-1.7,1.5-3.4a11.8,11.8,0,0,0-5.3-9.3,3.3,3.3,0,0,0-5.4,3.1A11.6,11.6,0,0,0,150.6,240Z"/>
        </g>
      </g>
    </g>
    <g id="Sparkles">
      <path id="Sparkles-2" data-name="Sparkles" class="cls-15" d="M36,188.1l-8.1-.8a1.7,1.7,0,0,1-1.4-1.5l-.9-10.3c-.1-.2-.3-.5-.6-.5a.5.5,0,0,0-.5.5l-.9,10.3a1.7,1.7,0,0,1-1.5,1.5l-8,.8a.6.6,0,0,0-.5.6.5.5,0,0,0,.5.5l8,.9a1.7,1.7,0,0,1,1.5,1.5l.9,10.2a.5.5,0,0,0,.5.5.6.6,0,0,0,.6-.5l.9-10.2a1.7,1.7,0,0,1,1.4-1.5l8.1-.9a.5.5,0,0,0,.4-.5A.7.7,0,0,0,36,188.1Zm-8.2.9a2.8,2.8,0,0,0-2.4,2.5l-.4,4.2-.4-4.2a2.8,2.8,0,0,0-2.4-2.5l-3.1-.3,3.1-.4a2.6,2.6,0,0,0,2.4-2.4h0l.4-4.3.4,4.3a2.6,2.6,0,0,0,2.4,2.4l3.2.4ZM388.9,59.4l-9.7-1.1a2.2,2.2,0,0,1-2-2l-1.1-12.4c-.1-.3-.2-.4-.5-.4a.4.4,0,0,0-.4.4L374,56.3a2.1,2.1,0,0,1-1.9,2l-9.8,1.1a.5.5,0,0,0-.4.5.4.4,0,0,0,.4.4l9.8,1.1a2.1,2.1,0,0,1,1.9,2l1.2,12.5a.4.4,0,0,0,.4.4c.3,0,.4-.2.5-.4l1.1-12.5a2.2,2.2,0,0,1,2-2l9.7-1.1a.4.4,0,0,0,.4-.4C389.3,59.6,389.2,59.4,388.9,59.4Zm-9.8,1.1a3.2,3.2,0,0,0-2.8,2.8l-.7,7.5-.7-7.5a3.1,3.1,0,0,0-2.7-2.8l-5.7-.6,5.7-.7a2.9,2.9,0,0,0,2.7-2.8l.7-7.5.7,7.5a3,3,0,0,0,2.8,2.8l5.7.7ZM18.5,91.8l5.1.6a1.3,1.3,0,0,1,1,1l.6,6.5a.3.3,0,0,0,.6,0l.6-6.6a1.3,1.3,0,0,1,1-.9l5.1-.6a.3.3,0,0,0,.3-.3c0-.2-.1-.3-.3-.4l-5.1-.5a1.3,1.3,0,0,1-1-1l-.6-6.5a.3.3,0,0,0-.6,0l-.6,6.5a1.3,1.3,0,0,1-1,1l-5.1.5c-.1.1-.3.2-.3.4A.3.3,0,0,0,18.5,91.8Zm5.2-.5a1.9,1.9,0,0,0,1.6-1.6h0l.2-2.7.2,2.7a1.9,1.9,0,0,0,1.6,1.6l2,.2-2,.2a1.9,1.9,0,0,0-1.6,1.6L25.5,96l-.2-2.7a1.9,1.9,0,0,0-1.6-1.6l-2-.2ZM150,26.3l5.1.5a1.1,1.1,0,0,1,.9,1l.6,6.5c0,.2.2.3.4.3a.3.3,0,0,0,.3-.3l.6-6.5a1.2,1.2,0,0,1,.9-1l5.2-.5a.4.4,0,0,0,.3-.4l-.3-.3-5.2-.6c-.5,0-.8-.4-.9-.9l-.6-6.6a.3.3,0,0,0-.3-.3.4.4,0,0,0-.4.3l-.6,6.6a.9.9,0,0,1-.9.9l-5.1.6a.3.3,0,0,0-.3.3C149.7,26.1,149.8,26.3,150,26.3Zm5.2-.6a1.6,1.6,0,0,0,1.5-1.6h0l.3-2.7.2,2.7a1.7,1.7,0,0,0,1.6,1.6l2,.2-2,.2a1.8,1.8,0,0,0-1.6,1.6l-.2,2.7-.3-2.7a1.7,1.7,0,0,0-1.5-1.6l-2-.2ZM45.5,107.4l5.1.6a1.1,1.1,0,0,1,1,.9l.5,6.5c.1.2.2.4.4.4s.3-.2.3-.4l.6-6.5a1.1,1.1,0,0,1,.9-.9l5.2-.6a.4.4,0,0,0,0-.7l-5.2-.5a1.3,1.3,0,0,1-.9-1l-.6-6.5a.3.3,0,0,0-.3-.3c-.2,0-.3.1-.4.3l-.5,6.5a1.3,1.3,0,0,1-1,1l-5.1.5c-.2,0-.3.2-.3.4A.3.3,0,0,0,45.5,107.4Zm5.2-.6a1.5,1.5,0,0,0,1.5-1.5h0l.3-2.7.2,2.7a1.7,1.7,0,0,0,1.6,1.5l2,.3-2,.2a1.8,1.8,0,0,0-1.6,1.6l-.2,2.7-.3-2.7a1.6,1.6,0,0,0-1.5-1.6l-2-.2Zm366.4-2.6,5.2.6c.5,0,.8.4.9.9l.6,6.5c0,.2.1.4.3.4a.4.4,0,0,0,.4-.4l.6-6.5a.9.9,0,0,1,.9-.9l5.1-.6a.3.3,0,0,0,.3-.3c0-.2-.1-.4-.3-.4L426,103a1.1,1.1,0,0,1-.9-1l-.6-6.5c0-.2-.2-.3-.4-.3a.3.3,0,0,0-.3.3l-.6,6.5a1.2,1.2,0,0,1-.9,1l-5.2.5a.4.4,0,0,0,0,.7Zm5.2-.6a1.7,1.7,0,0,0,1.6-1.5h0l.2-2.7.3,2.7a1.6,1.6,0,0,0,1.5,1.5l2,.3-2,.2a1.6,1.6,0,0,0-1.5,1.6l-.3,2.7-.2-2.7a1.7,1.7,0,0,0-1.6-1.6l-2-.2ZM348.2,35l4,.4a1.1,1.1,0,0,1,.8.8l.4,5.1c0,.1.1.2.3.2l.3-.2.4-5.1a1.1,1.1,0,0,1,.8-.8l4-.4.2-.3c0-.1-.1-.3-.2-.3l-4-.4a1.1,1.1,0,0,1-.8-.8l-.4-5.1q-.2-.3-.3-.3a.3.3,0,0,0-.3.3l-.4,5.1a1.1,1.1,0,0,1-.8.8l-4,.4a.5.5,0,0,0-.3.3Zm4.1-.5a1.5,1.5,0,0,0,1.2-1.2l.2-2.2.2,2.2a1.3,1.3,0,0,0,1.2,1.2l1.6.2-1.6.2a1.2,1.2,0,0,0-1.2,1.2l-.2,2.1-.2-2.1a1.4,1.4,0,0,0-1.2-1.2l-1.6-.2Zm55.9-12.4,4.7.5a1.1,1.1,0,0,1,.9.9l.5,6c0,.2.2.3.4.3a.3.3,0,0,0,.3-.3l.5-6a1.1,1.1,0,0,1,.9-.9l4.7-.5a.3.3,0,0,0,.3-.3c0-.2-.1-.3-.3-.4l-4.7-.5a1,1,0,0,1-.9-.8L415,14a.3.3,0,0,0-.3-.3c-.2,0-.4.1-.4.3l-.5,6.1a1,1,0,0,1-.9.8l-4.7.5c-.2.1-.3.2-.3.4A.3.3,0,0,0,408.2,22.1Zm4.8-.5a1.5,1.5,0,0,0,1.4-1.5l.3-2.5.2,2.5a1.5,1.5,0,0,0,1.4,1.5l1.9.2-1.9.2a1.5,1.5,0,0,0-1.4,1.4l-.2,2.5-.3-2.5A1.5,1.5,0,0,0,413,22l-1.9-.2Zm45.4,190.6-4-.4c-.4,0-.7-.4-.8-.8l-.4-5.1q-.1-.3-.3-.3a.3.3,0,0,0-.3.3l-.5,5.1a.8.8,0,0,1-.7.8l-4.1.4-.2.3c0,.2.1.3.2.3l4.1.4a.8.8,0,0,1,.7.8l.5,5.2c0,.1.1.2.3.2l.3-.2.4-5.2a1.1,1.1,0,0,1,.8-.8l4-.4a.3.3,0,0,0,.3-.3Q458.7,212.4,458.4,212.2Zm-4.1.5a1.3,1.3,0,0,0-1.2,1.2l-.2,2.2-.2-2.2a1.5,1.5,0,0,0-1.2-1.2l-1.6-.2,1.6-.2a1.4,1.4,0,0,0,1.2-1.2h0l.2-2.1.2,2.1a1.2,1.2,0,0,0,1.2,1.2l1.6.2Zm-440,14-5.2-.6a1.1,1.1,0,0,1-.9-.9l-.6-6.5c0-.2-.1-.4-.3-.4s-.3.2-.4.4l-.5,6.5a1.1,1.1,0,0,1-1,.9l-5.1.6a.3.3,0,0,0-.3.3c0,.2.1.4.3.4l5.1.5a1.3,1.3,0,0,1,1,1l.5,6.5c.1.2.2.3.4.3a.3.3,0,0,0,.3-.3l.6-6.5a1.3,1.3,0,0,1,.9-1l5.2-.5a.4.4,0,0,0,.3-.4Zm-5.2.6a1.6,1.6,0,0,0-1.6,1.5l-.2,2.7L7,228.8a1.5,1.5,0,0,0-1.5-1.5l-2-.3,2-.2A1.6,1.6,0,0,0,7,225.2H7l.3-2.7.2,2.7a1.7,1.7,0,0,0,1.6,1.6l2,.2Zm436.4-46.5-6.3-.7a1.3,1.3,0,0,1-1.1-1.2l-.8-8a.4.4,0,1,0-.8,0l-.7,8a1.5,1.5,0,0,1-1.2,1.2l-6.3.7a.4.4,0,0,0-.4.4.7.7,0,0,0,.4.5l6.3.7a1.3,1.3,0,0,1,1.2,1.1l.7,8.1a.4.4,0,1,0,.8,0l.8-8.1a1.1,1.1,0,0,1,1.1-1.1l6.3-.7a.5.5,0,0,0,.4-.5A.4.4,0,0,0,445.5,180.8Zm-6.4.7a2.1,2.1,0,0,0-1.9,1.9l-.3,3.4-.3-3.4a2.1,2.1,0,0,0-1.9-1.9l-2.5-.3,2.5-.2a2.3,2.3,0,0,0,1.9-2l.3-3.3.3,3.3a2.3,2.3,0,0,0,1.9,2l2.5.2ZM57.8,29.1l-5.1-.5a1.1,1.1,0,0,1-.9-1l-.6-6.5a.3.3,0,0,0-.3-.3c-.2,0-.4.1-.4.3l-.6,6.5a1.1,1.1,0,0,1-.9,1l-5.1.5c-.2.1-.3.2-.3.4a.3.3,0,0,0,.3.3l5.1.6a1.1,1.1,0,0,1,.9,1l.6,6.5c0,.2.2.3.4.3a.3.3,0,0,0,.3-.3l.6-6.6a1.1,1.1,0,0,1,.9-.9l5.1-.6c.2,0,.4-.1.4-.3S58,29.2,57.8,29.1Zm-5.1.6a1.8,1.8,0,0,0-1.6,1.6L50.9,34l-.3-2.7a1.7,1.7,0,0,0-1.5-1.6l-2-.2,2-.2a1.7,1.7,0,0,0,1.5-1.6h0l.3-2.7.2,2.7a1.8,1.8,0,0,0,1.6,1.6l2,.2Zm357.4,98-10.5-1.1a2.5,2.5,0,0,1-2.1-2.2l-1.2-13.3a.5.5,0,0,0-.5-.5.5.5,0,0,0-.5.5l-1.2,13.3a2.5,2.5,0,0,1-2.1,2.2l-10.4,1.1c-.3.1-.5.3-.5.5a.5.5,0,0,0,.5.5l10.4,1.1a2.5,2.5,0,0,1,2.1,2.2l1.2,13.3a.5.5,0,0,0,.5.5.5.5,0,0,0,.5-.5l1.2-13.3a2.5,2.5,0,0,1,2.1-2.2l10.5-1.1c.2,0,.4-.3.4-.5A.7.7,0,0,0,410.1,127.7Zm-10.6,1.2a3.4,3.4,0,0,0-3,3l-.7,8-.7-8a3.4,3.4,0,0,0-3-3l-6.1-.7,6.1-.7a3.3,3.3,0,0,0,3-3l.7-8,.7,8a3.3,3.3,0,0,0,3,3l6.1.7Zm-259.8-81-10.4-1.2a2.1,2.1,0,0,1-1.9-1.9l-1.2-13.3c0-.4-.3-.6-.7-.6s-.7.2-.7.6l-1.2,13.3a2.1,2.1,0,0,1-1.9,1.9l-10.4,1.2c-.4,0-.6.3-.6.7a.7.7,0,0,0,.6.7l10.4,1.1a2.2,2.2,0,0,1,1.9,2l1.2,13.2a.7.7,0,0,0,1.4,0l1.2-13.2a2.2,2.2,0,0,1,1.9-2l10.4-1.1a.7.7,0,0,0,.6-.7C140.3,48.2,140.1,47.9,139.7,47.9ZM129.1,49a3.6,3.6,0,0,0-3.1,3.2l-.5,5.5-.5-5.5a3.6,3.6,0,0,0-3.1-3.2l-4.1-.4,4.1-.5a3.5,3.5,0,0,0,3.1-3.2h0l.5-5.5.5,5.5a3.5,3.5,0,0,0,3.1,3.2l4.1.5Z"/>
    </g>
  </g>
</svg>
