<svg xmlns="http://www.w3.org/2000/svg" viewBox="0 0 52 56.2">
  <defs>
    <style>
      .cls-1 {
        fill: #daff01;
      }
    </style>
  </defs>
  <g id="Camada_2" data-name="Camada 2">
    <g id="OBJECTS">
      <g>
        <path class="cls-1" d="M6.3,34.6,26,9.2,45.7,34.6a3.5,3.5,0,1,0,5.5-4.3L28.7,1.4A3.2,3.2,0,0,0,26,0a3.5,3.5,0,0,0-2.8,1.4L.7,30.3A3.1,3.1,0,0,0,0,32.4a3.7,3.7,0,0,0,1.4,2.8A3.5,3.5,0,0,0,6.3,34.6Z"/>
        <path class="cls-1" d="M16.4,45.2,26,32.9l9.5,12.3a3.5,3.5,0,0,0,5.6-4.3L28.7,25A3.4,3.4,0,0,0,26,23.7,3.7,3.7,0,0,0,23.2,25L10.9,40.9a3.3,3.3,0,0,0-.7,2.1,3.5,3.5,0,0,0,1.3,2.8A3.5,3.5,0,0,0,16.4,45.2Z"/>
        <path class="cls-1" d="M32.4,54.3a3.5,3.5,0,0,0-.4-3.7l-3.3-4.2A3.2,3.2,0,0,0,26,45a3.5,3.5,0,0,0-2.8,1.4L20,50.6a3.4,3.4,0,0,0-.8,2.1,4.7,4.7,0,0,0,.4,1.6,3.4,3.4,0,0,0,3.1,1.9h6.5A3.5,3.5,0,0,0,32.4,54.3Z"/>
      </g>
    </g>
  </g>
</svg>
